<?xml version="1.0" encoding="UTF-8" standalone="no"?>
<!-- Created with matplotlib (http://matplotlib.sourceforge.net/) -->

<svg
   xmlns:dc="http://purl.org/dc/elements/1.1/"
   xmlns:cc="http://creativecommons.org/ns#"
   xmlns:rdf="http://www.w3.org/1999/02/22-rdf-syntax-ns#"
   xmlns:svg="http://www.w3.org/2000/svg"
   xmlns="http://www.w3.org/2000/svg"
   xmlns:xlink="http://www.w3.org/1999/xlink"
   xmlns:sodipodi="http://sodipodi.sourceforge.net/DTD/sodipodi-0.dtd"
   xmlns:inkscape="http://www.inkscape.org/namespaces/inkscape"
   width="516pt"
   height="372pt"
   viewBox="0 0 516 372"
   version="1.1"
   id="svg1"
   inkscape:version="0.48.0 r9654"
   sodipodi:docname="vdp_s90.pdf">
  <metadata
     id="metadata558">
    <rdf:RDF>
      <cc:Work
         rdf:about="">
        <dc:format>image/svg+xml</dc:format>
        <dc:type
           rdf:resource="http://purl.org/dc/dcmitype/StillImage" />
        <dc:title></dc:title>
      </cc:Work>
    </rdf:RDF>
  </metadata>
  <defs
     id="defs556">
    <marker
       inkscape:stockid="Arrow1Mend"
       orient="auto"
       refY="0.0"
       refX="0.0"
       id="Arrow1Mend"
       style="overflow:visible;">
      <path
         id="path10327"
         d="M 0.0,0.0 L 5.0,-5.0 L -12.5,0.0 L 5.0,5.0 L 0.0,0.0 z "
         style="fill-rule:evenodd;stroke:#000000;stroke-width:1.0pt;marker-start:none;"
         transform="scale(0.4) rotate(180) translate(10,0)" />
    </marker>
    <defs
       id="defs320">
      <path
         inkscape:connector-curvature="0"
         d="M 0,0 -4,0"
         id="m20b58b2501143cb5e0a5e8f1ef6f1643" />
    </defs>
    <defs
       id="defs312">
      <path
         inkscape:connector-curvature="0"
         d="M 0,0 4,0"
         id="m3400efa6b1638b3fea9e19e898273957" />
    </defs>
    <defs
       id="defs12">
      <clipPath
         id="p85afda3df449e9901343cd6a43678f50">
        <rect
           id="rect15"
           height="300.60001"
           width="408.60001"
           y="36"
           x="72" />
      </clipPath>
    </defs>
  </defs>
  <sodipodi:namedview
     pagecolor="#ffffff"
     bordercolor="#666666"
     borderopacity="1"
     objecttolerance="10"
     gridtolerance="10"
     guidetolerance="10"
     inkscape:pageopacity="0"
     inkscape:pageshadow="2"
     inkscape:window-width="1373"
     inkscape:window-height="818"
     id="namedview554"
     showgrid="false"
     inkscape:zoom="1.3296974"
     inkscape:cx="287.29042"
     inkscape:cy="221.43555"
     inkscape:window-x="0"
     inkscape:window-y="0"
     inkscape:window-maximized="0"
     inkscape:current-layer="svg1" />
  <path
     inkscape:connector-curvature="0"
     id="path17"
     d="m 480.6,266.70025 -22.43547,-4.83479 -18.29768,-4.57345 -15.66735,-4.57346 -13.24654,-4.57345 -10.67684,-4.41011 -8.21597,-4.08344 -6.76331,-4.08344 -5.65316,-4.24677 -4.411,-4.24678 -3.55355,-4.57345 -2.51699,-4.57345 -1.68994,-4.57346 -1.26856,-5.71681 -0.17393,-1.14336 0,0"
     clip-path="url(#p85afda3df449e9901343cd6a43678f50)"
     style="fill:none;stroke:#000000;stroke-width:2;stroke-linecap:square;stroke-linejoin:round" />
  <path
     inkscape:connector-curvature="0"
     id="path20"
     d="m 366.00916,206.34962 -3.08592,-20.58053 -1.79042,-4.57345 -2.64606,-4.57346 -2.67209,-3.43008 -4.27057,-4.24678 -5.49222,-4.24678 -6.58921,-4.08344 -8.37574,-4.24677 -9.25286,-3.9201 -10.84902,-3.9201 -13.70734,-4.24678 -15.90319,-4.24678 -19.77463,-4.57345 -22.72534,-4.57345 -27.861,-4.90012 -6.03021,-0.98003 0,0"
     clip-path="url(#p85afda3df449e9901343cd6a43678f50)"
     style="fill:none;stroke:#000000;stroke-width:2;stroke-linecap:butt;stroke-linejoin:round;stroke-dasharray:6, 6;stroke-dashoffset:0" />
  <path
     inkscape:connector-curvature="0"
     id="path23"
     d="m 204.88567,124.99186 -33.72392,-5.06347 -39.52361,-5.2268 -46.099602,-5.39013 -53.52731,-5.55347 -18.382657,-1.76774 0,0"
     clip-path="url(#p85afda3df449e9901343cd6a43678f50)"
     style="fill:none;stroke:#000000;stroke-width:2;stroke-linecap:square;stroke-linejoin:round" />
  <path
     inkscape:connector-curvature="0"
     id="path26"
     d="m 366.00916,206.34962 0,-0.0209"
     clip-path="url(#p85afda3df449e9901343cd6a43678f50)"
     style="fill:none;stroke:#ff0000;stroke-width:2;stroke-linecap:square;stroke-linejoin:round" />
  <path
     inkscape:connector-curvature="0"
     id="path29"
     d="m 366.00916,206.32868 0,-0.0419 10e-6,-0.0629 3e-5,-0.0943 8e-5,-0.1415 1.9e-4,-0.20972 2.7e-4,-0.20979 3.5e-4,-0.20983 4.4e-4,-0.21018 5.2e-4,-0.21017 6e-4,-0.21021 6.9e-4,-0.20953 7.6e-4,-0.21057 8.5e-4,-0.21061 9.2e-4,-0.20943 0.001,-0.21084 10e-4,-0.21085 0.001,-0.21083 10e-4,-0.21076 0.001,-0.21069 10e-4,-0.21033 10e-4,-0.21022 0.002,-0.21004 0.002,-0.2112 0.002,-0.21005 0.002,-0.20982 0.002,-0.21194 0.002,-0.21024 0.002,-0.21001 0.002,-0.21062 0.002,-0.21035 0.002,-0.21011 0.002,-0.2088 0.002,-0.21061 0.002,-0.21037 0.002,-0.20751 0.002,-0.21068 0.002,-0.21041 0.002,-0.20846 0.002,-0.21033 0.002,-0.21003 0.003,-0.2083 0.003,-0.20993 0.003,-0.20961 0.003,-0.20851 0.003,-0.20937 0.003,-0.20901 0.003,-0.20764 0.003,-0.20911 0.003,-0.20873 0.003,-0.20391 0.003,-0.20952 0.003,-0.20916 0.003,-0.20428 0.003,-0.20728 0.003,-0.20928 0.003,-0.21184 0.003,-0.20722 0.003,-0.20678 0.003,-0.20408 0.003,-0.20522 0.003,-0.2047 0.003,-0.21202 0.003,-0.20741 0.003,-0.20695 0.003,-0.20556 0.003,-0.20662 0.003,-0.20614 0.003,-0.20563 0.003,-0.20555 0.003,-0.20504 0.003,-0.20106 0.003,-0.20299 0.003,-0.20243 0.003,-0.20557 0.003,-0.20648 0.003,-0.20599 0.003,-0.20398 0.003,-0.20529 0.002,-0.20477 0.002,-0.20435 0.002,-0.20362 0.002,-0.20307 0.002,-0.20142 0.002,-0.20137 0.002,-0.20077 0.002,-0.19691 0.002,-0.19899 0.002,-0.20424 0.002,-0.20049 0.002,-0.20368 0.002,-0.20313 0.002,-0.20391 0.002,-0.2017 0.002,-0.20111 0.002,-0.19448 0.002,-0.20159 0.002,-0.20102 0.002,-0.19639 0.001,-0.20072 10e-4,-0.20013 10e-4,-0.19623 0.001,-0.19974 10e-4,-0.19914 0.001,-0.19641 10e-4,-0.19859 0.001,-0.19798 9.5e-4,-0.19392 8.8e-4,-0.19792 8e-4,-0.19732 7.3e-4,-0.19581 6.5e-4,-0.19648 5.8e-4,-0.19588 5.1e-4,-0.19351 4.2e-4,-0.19576 3.5e-4,-0.19515 2.6e-4,-0.19274 1.9e-4,-0.19271 1.1e-4,-0.19207 2e-5,-0.14919"
     clip-path="url(#p85afda3df449e9901343cd6a43678f50)"
     style="fill:none;stroke:#ff0000;stroke-width:2;stroke-linecap:butt;stroke-linejoin:round;stroke-dasharray:6, 6;stroke-dashoffset:0" />
  <path
     inkscape:connector-curvature="0"
     id="path32"
     d="m 366.22319,182.4594 -0.34195,-15.33928 -0.89302,-11.49155 -1.55573,-10.50568 -1.8796,-8.12724 -2.36289,-7.43437 -2.64227,-6.51255 -3.38229,-6.78624 -3.83412,-6.40174 -4.56676,-6.45231 -6.10039,-7.364031 -6.10208,-6.388814 -8.3527,-7.631926 -16.2302,-12.89479 -13.24506,-8.635261 -3.24337,-1.38571 -4.25993,-1.14295 -3.24135,-0.211499 -3.18056,0.218592 -5.67973,1.495273 -6.04531,2.586014 -6.63665,3.64512 -6.7298,4.142671 -9.5393,6.401374 -14.91209,11.101943 -8.45547,7.242956 -6.1182,6.073978 -4.29974,5.12166 -3.50832,5.31466 -2.05606,4.26179 -1.32529,4.22019 -0.58619,4.20038 0.37374,-3.16888 0,0 1.14456,-4.21736 1.87782,-4.2525 2.59902,-4.29893 4.07756,-5.27393 4.77784,-5.099087 6.38974,-5.882313 10.46911,-8.417081 11.79212,-8.484598 10.82592,-7.063504 8.03509,-4.654258 6.04652,-2.835325 4.31831,-1.495362 3.3559,-0.669776 5.30197,-0.148657 4.21991,0.929951 4.3559,1.832674 6.16684,3.74471 6.0611,4.202981 11.16063,8.516972 7.09057,5.933696 7.34104,6.807383 6.09885,6.406177 9.29959,11.908397 2.76253,4.25178 4.79424,8.81006 2.92353,6.75135 2.40779,7.10136 2.04878,8.15407 1.57156,9.29568 1.02257,10.34295 0.53517,12.71853 0.0606,6.77489 0,0"
     clip-path="url(#p85afda3df449e9901343cd6a43678f50)"
     style="fill:none;stroke:#ff0000;stroke-width:2;stroke-linecap:square;stroke-linejoin:round" />
  <path
     inkscape:connector-curvature="0"
     id="path35"
     d="m 366.22319,182.44891 -4e-5,0.19281 -1.2e-4,0.19379 -2e-4,0.19441 -2.8e-4,0.19476 -3.7e-4,0.19553 -4.4e-4,0.19613 -5.1e-4,0.19889 -6e-4,0.19769 -6.7e-4,0.19828 -7.4e-4,0.20125 -8.2e-4,0.19966 -8.9e-4,0.19485 -9.6e-4,0.19001 -10e-4,0.19437 -0.001,0.19503 -10e-4,0.19386 -10e-4,0.19678 -0.001,0.1974 -10e-4,0.19885 -0.001,0.19969 -0.002,0.2003 -0.002,0.20138 -0.002,0.20156 -0.002,0.20213 -0.002,0.19957 -0.002,0.1978 -0.002,0.19844 -0.002,0.20366 -0.002,0.19879 -0.002,0.19942 -0.002,0.21 -0.002,0.19884 -0.002,0.19947 -0.002,0.20366 -0.002,0.20008 -0.002,0.2007 -0.002,0.19899 -0.002,0.2035 -0.002,0.20404 -0.002,0.21295 -0.002,0.20351 -0.003,0.20121 -0.003,0.1973 -0.003,0.20351 -0.003,0.20405 -0.003,0.20541 -0.003,0.20573 -0.003,0.20623 -0.003,0.20889 -0.003,0.20334 -0.003,0.20389 -0.003,0.20276 -0.003,0.20584 -0.003,0.20632 -0.003,0.2114 -0.003,0.20829 -0.003,0.20492 -0.003,0.20128 -0.003,0.20752 -0.003,0.20795 -0.003,0.20646 -0.003,0.20834 -0.003,0.20874 -0.003,0.20393 -0.003,0.20726 -0.003,0.2077 -0.003,0.20872 -0.003,0.20884 -0.003,0.20922 -0.003,0.20699 -0.003,0.20937 -0.003,0.20973 -0.003,0.2082 -0.003,0.2076 -0.003,0.208 -0.003,0.20829 -0.003,0.20882 -0.003,0.20918 -0.003,0.20949 -0.002,0.20982 -0.002,0.21011 -0.002,0.21092 -0.002,0.21077 -0.002,0.20952 -0.002,0.20861 -0.002,0.2091 -0.002,0.20941 -0.002,0.2099 -0.002,0.21063 -0.002,0.21084 -0.002,0.20893 -0.002,0.21022 -0.002,0.21044 -0.002,0.21039 -0.002,0.21055 -0.002,0.21072 -0.002,0.21066 -0.001,0.21091 -10e-4,0.21101 -0.001,0.21029 -10e-4,0.21101 -0.001,0.21104 -10e-4,0.21006 -10e-4,0.20997 -9.8e-4,0.21009 -9.1e-4,0.20995 -8.3e-4,0.21044 -7.5e-4,0.21044 -6.7e-4,0.21011 -5.9e-4,0.21024 -5e-4,0.21018 -4.2e-4,0.21077 -3.4e-4,0.20956 -2.6e-4,0.20958 -1.7e-4,0.20953 -8e-5,0.20953 -1e-5,0.0124 0,-3e-5"
     clip-path="url(#p85afda3df449e9901343cd6a43678f50)"
     style="fill:none;stroke:#ff0000;stroke-width:2;stroke-linecap:butt;stroke-linejoin:round;stroke-dasharray:6, 6;stroke-dashoffset:0" />
  <path
     inkscape:connector-curvature="0"
     id="path38"
     d="m 204.88567,124.99186 -1e-5,-0.009 0,-1e-5"
     clip-path="url(#p85afda3df449e9901343cd6a43678f50)"
     style="fill:none;stroke:#ff0000;stroke-width:2;stroke-linecap:square;stroke-linejoin:round" />
  <g
     id="line2d9">
    <defs
       id="defs43">
      <path
         id="m30e32995789d870ad79a2e54c91cf9c6"
         d="M 0,0 0,-4"
         inkscape:connector-curvature="0" />
    </defs>
    <g
       id="g46">
      <use
         style="fill:none;stroke:#000000;stroke-width:0.5;stroke-linecap:butt;stroke-linejoin:round"
         xlink:href="#m30e32995789d870ad79a2e54c91cf9c6"
         x="72"
         y="336.60001"
         id="use48"
         width="516"
         height="372" />
    </g>
  </g>
  <g
     id="line2d10">
    <defs
       id="defs51">
      <path
         id="m9281cae24120827b11d5ea8a7ad3e96b"
         d="M 0,0 0,4"
         inkscape:connector-curvature="0" />
    </defs>
    <g
       id="g54">
      <use
         style="fill:none;stroke:#000000;stroke-width:0.5;stroke-linecap:butt;stroke-linejoin:round"
         xlink:href="#m9281cae24120827b11d5ea8a7ad3e96b"
         x="72"
         y="36"
         id="use56"
         width="516"
         height="372" />
    </g>
  </g>
  <g
     id="line2d11">
    <g
       id="g82">
      <use
         style="fill:none;stroke:#000000;stroke-width:0.5;stroke-linecap:butt;stroke-linejoin:round"
         xlink:href="#m30e32995789d870ad79a2e54c91cf9c6"
         x="130.37143"
         y="336.60001"
         id="use84"
         width="516"
         height="372" />
    </g>
  </g>
  <g
     id="line2d12">
    <g
       id="g87">
      <use
         style="fill:none;stroke:#000000;stroke-width:0.5;stroke-linecap:butt;stroke-linejoin:round"
         xlink:href="#m9281cae24120827b11d5ea8a7ad3e96b"
         x="130.37143"
         y="36"
         id="use89"
         width="516"
         height="372" />
    </g>
  </g>
  <g
     id="line2d13">
    <g
       id="g108">
      <use
         style="fill:none;stroke:#000000;stroke-width:0.5;stroke-linecap:butt;stroke-linejoin:round"
         xlink:href="#m30e32995789d870ad79a2e54c91cf9c6"
         x="188.74286"
         y="336.60001"
         id="use110"
         width="516"
         height="372" />
    </g>
  </g>
  <g
     id="line2d14">
    <g
       id="g113">
      <use
         style="fill:none;stroke:#000000;stroke-width:0.5;stroke-linecap:butt;stroke-linejoin:round"
         xlink:href="#m9281cae24120827b11d5ea8a7ad3e96b"
         x="188.74286"
         y="36"
         id="use115"
         width="516"
         height="372" />
    </g>
  </g>
  <g
     id="line2d15">
    <g
       id="g137">
      <use
         style="fill:none;stroke:#000000;stroke-width:0.5;stroke-linecap:butt;stroke-linejoin:round"
         xlink:href="#m30e32995789d870ad79a2e54c91cf9c6"
         x="247.11429"
         y="336.60001"
         id="use139"
         width="516"
         height="372" />
    </g>
  </g>
  <g
     id="line2d16">
    <g
       id="g142">
      <use
         style="fill:none;stroke:#000000;stroke-width:0.5;stroke-linecap:butt;stroke-linejoin:round"
         xlink:href="#m9281cae24120827b11d5ea8a7ad3e96b"
         x="247.11429"
         y="36"
         id="use144"
         width="516"
         height="372" />
    </g>
  </g>
  <g
     id="line2d17">
    <g
       id="g163">
      <use
         style="fill:none;stroke:#000000;stroke-width:0.5;stroke-linecap:butt;stroke-linejoin:round"
         xlink:href="#m30e32995789d870ad79a2e54c91cf9c6"
         x="305.48572"
         y="336.60001"
         id="use165"
         width="516"
         height="372" />
    </g>
  </g>
  <g
     id="line2d18">
    <g
       id="g168">
      <use
         style="fill:none;stroke:#000000;stroke-width:0.5;stroke-linecap:butt;stroke-linejoin:round"
         xlink:href="#m9281cae24120827b11d5ea8a7ad3e96b"
         x="305.48572"
         y="36"
         id="use170"
         width="516"
         height="372" />
    </g>
  </g>
  <g
     id="line2d19">
    <g
       id="g189">
      <use
         style="fill:none;stroke:#000000;stroke-width:0.5;stroke-linecap:butt;stroke-linejoin:round"
         xlink:href="#m30e32995789d870ad79a2e54c91cf9c6"
         x="363.85715"
         y="336.60001"
         id="use191"
         width="516"
         height="372" />
    </g>
  </g>
  <g
     id="line2d20">
    <g
       id="g194">
      <use
         style="fill:none;stroke:#000000;stroke-width:0.5;stroke-linecap:butt;stroke-linejoin:round"
         xlink:href="#m9281cae24120827b11d5ea8a7ad3e96b"
         x="363.85715"
         y="36"
         id="use196"
         width="516"
         height="372" />
    </g>
  </g>
  <g
     id="line2d21">
    <g
       id="g213">
      <use
         style="fill:none;stroke:#000000;stroke-width:0.5;stroke-linecap:butt;stroke-linejoin:round"
         xlink:href="#m30e32995789d870ad79a2e54c91cf9c6"
         x="422.22858"
         y="336.60001"
         id="use215"
         width="516"
         height="372" />
    </g>
  </g>
  <g
     id="line2d22">
    <g
       id="g218">
      <use
         style="fill:none;stroke:#000000;stroke-width:0.5;stroke-linecap:butt;stroke-linejoin:round"
         xlink:href="#m9281cae24120827b11d5ea8a7ad3e96b"
         x="422.22858"
         y="36"
         id="use220"
         width="516"
         height="372" />
    </g>
  </g>
  <g
     id="g315">
    <use
       height="372"
       width="516"
       id="use317"
       y="336.60001"
       x="72"
       xlink:href="#m3400efa6b1638b3fea9e19e898273957"
       style="fill:none;stroke:#000000;stroke-width:0.5;stroke-linecap:butt;stroke-linejoin:round" />
  </g>
  <g
     id="g323">
    <use
       height="372"
       width="516"
       id="use325"
       y="336.60001"
       x="480.60001"
       xlink:href="#m20b58b2501143cb5e0a5e8f1ef6f1643"
       style="fill:none;stroke:#000000;stroke-width:0.5;stroke-linecap:butt;stroke-linejoin:round" />
  </g>
  <g
     id="line2d25">
    <g
       id="g334">
      <use
         style="fill:none;stroke:#000000;stroke-width:0.5;stroke-linecap:butt;stroke-linejoin:round"
         xlink:href="#m3400efa6b1638b3fea9e19e898273957"
         x="72"
         y="276.48001"
         id="use336"
         width="516"
         height="372" />
    </g>
  </g>
  <g
     id="line2d26">
    <g
       id="g339">
      <use
         style="fill:none;stroke:#000000;stroke-width:0.5;stroke-linecap:butt;stroke-linejoin:round"
         xlink:href="#m20b58b2501143cb5e0a5e8f1ef6f1643"
         x="480.60001"
         y="276.48001"
         id="use341"
         width="516"
         height="372" />
    </g>
  </g>
  <g
     id="line2d27">
    <g
       id="g352">
      <use
         style="fill:none;stroke:#000000;stroke-width:0.5;stroke-linecap:butt;stroke-linejoin:round"
         xlink:href="#m3400efa6b1638b3fea9e19e898273957"
         x="72"
         y="216.36"
         id="use354"
         width="516"
         height="372" />
    </g>
  </g>
  <g
     id="line2d28">
    <g
       id="g357">
      <use
         style="fill:none;stroke:#000000;stroke-width:0.5;stroke-linecap:butt;stroke-linejoin:round"
         xlink:href="#m20b58b2501143cb5e0a5e8f1ef6f1643"
         x="480.60001"
         y="216.36"
         id="use359"
         width="516"
         height="372" />
    </g>
  </g>
  <g
     id="line2d29">
    <g
       id="g373">
      <use
         style="fill:none;stroke:#000000;stroke-width:0.5;stroke-linecap:butt;stroke-linejoin:round"
         xlink:href="#m3400efa6b1638b3fea9e19e898273957"
         x="72"
         y="156.24001"
         id="use375"
         width="516"
         height="372" />
    </g>
  </g>
  <g
     id="line2d30">
    <g
       id="g378">
      <use
         style="fill:none;stroke:#000000;stroke-width:0.5;stroke-linecap:butt;stroke-linejoin:round"
         xlink:href="#m20b58b2501143cb5e0a5e8f1ef6f1643"
         x="480.60001"
         y="156.24001"
         id="use380"
         width="516"
         height="372" />
    </g>
  </g>
  <g
     id="line2d31">
    <g
       id="g394">
      <use
         style="fill:none;stroke:#000000;stroke-width:0.5;stroke-linecap:butt;stroke-linejoin:round"
         xlink:href="#m3400efa6b1638b3fea9e19e898273957"
         x="72"
         y="96.120003"
         id="use396"
         width="516"
         height="372" />
    </g>
  </g>
  <g
     id="line2d32">
    <g
       id="g399">
      <use
         style="fill:none;stroke:#000000;stroke-width:0.5;stroke-linecap:butt;stroke-linejoin:round"
         xlink:href="#m20b58b2501143cb5e0a5e8f1ef6f1643"
         x="480.60001"
         y="96.120003"
         id="use401"
         width="516"
         height="372" />
    </g>
  </g>
  <g
     id="line2d33">
    <g
       id="g415">
      <use
         style="fill:none;stroke:#000000;stroke-width:0.5;stroke-linecap:butt;stroke-linejoin:round"
         xlink:href="#m3400efa6b1638b3fea9e19e898273957"
         x="72"
         y="36"
         id="use417"
         width="516"
         height="372" />
    </g>
  </g>
  <g
     id="line2d34">
    <g
       id="g420">
      <use
         style="fill:none;stroke:#000000;stroke-width:0.5;stroke-linecap:butt;stroke-linejoin:round"
         xlink:href="#m20b58b2501143cb5e0a5e8f1ef6f1643"
         x="480.60001"
         y="36"
         id="use422"
         width="516"
         height="372" />
    </g>
  </g>
  <path
     inkscape:connector-curvature="0"
     id="path473"
     d="m 72,36 408.6,0"
     style="fill:none;stroke:#000000;stroke-width:1;stroke-linecap:square;stroke-linejoin:round" />
  <path
     inkscape:connector-curvature="0"
     id="path476"
     d="M 480.6,336.6 480.6,36"
     style="fill:none;stroke:#000000;stroke-width:1;stroke-linecap:square;stroke-linejoin:round" />
  <path
     inkscape:connector-curvature="0"
     id="path479"
     d="m 72,336.6 408.6,0"
     style="fill:none;stroke:#000000;stroke-width:1;stroke-linecap:square;stroke-linejoin:round" />
  <path
     inkscape:connector-curvature="0"
     id="path482"
     d="M 72,336.6 72,36"
     style="fill:none;stroke:#000000;stroke-width:1;stroke-linecap:square;stroke-linejoin:round" />
  <g
     id="text18">
    <g
       clip-path="url(#p85afda3df449e9901343cd6a43678f50)"
       id="g502">
      <g
         style="fill:#ff0000"
         transform="matrix(0.12,0,0,0.12,13.628571,101.99025)"
         id="g504">
        <path
           inkscape:connector-curvature="0"
           d=""
           id="use506" />
      </g>
    </g>
  </g>
  <g
     id="text21">
    <g
       clip-path="url(#p85afda3df449e9901343cd6a43678f50)"
       id="g526">
      <g
         style="fill:#ff0000"
         transform="matrix(0.12,0,0,0.12,366.00916,206.2511)"
         id="g528">
        <path
           inkscape:connector-curvature="0"
           d=""
           id="use530" />
      </g>
    </g>
  </g>
  <g
     id="text23">
    <defs
       id="defs540">
      <path
         id="c_b672e4bee30772019085dff1098f516d"
         d="m 53.515625,-70.515625 0,9.625 q -5.609375,-2.6875 -10.59375,-4 -4.984375,-1.328125 -9.625,-1.328125 -8.046875,0 -12.421875,3.125 -4.375,3.125 -4.375,8.890625 0,4.84375 2.90625,7.3125 2.90625,2.453125 11.015625,3.96875 l 5.953125,1.21875 q 11.03125,2.109375 16.28125,7.40625 5.25,5.296875 5.25,14.171875 0,10.609375 -7.109375,16.078125 -7.09375,5.46875 -20.8125,5.46875 Q 24.8125,1.421875 18.96875,0.25 13.140625,-0.921875 6.890625,-3.21875 l 0,-10.15625 q 6,3.359375 11.765625,5.078125 5.765625,1.703125 11.328125,1.703125 8.4375,0 13.03125,-3.3125 4.59375,-3.328125 4.59375,-9.484375 0,-5.359375 -3.296875,-8.390625 Q 41.015625,-30.8125 33.5,-32.328125 L 27.484375,-33.5 q -11.03125,-2.1875 -15.96875,-6.875 -4.921875,-4.6875 -4.921875,-13.046875 0,-9.671875 6.8125,-15.234375 6.8125,-5.5625 18.765625,-5.5625 5.140625,0 10.453125,0.9375 5.328125,0.921875 10.890625,2.765625"
         inkscape:connector-curvature="0" />
      <path
         id="c_cd96f817f3cab988d24a2b49a5577fe6"
         d="m 10.984375,-1.515625 0,-8.984375 q 3.71875,1.765625 7.515625,2.6875 3.8125,0.921875 7.484375,0.921875 9.765625,0 14.90625,-6.5625 5.15625,-6.5625 5.890625,-19.953125 -2.828125,4.203125 -7.1875,6.453125 -4.34375,2.25 -9.609375,2.25 -10.9375,0 -17.3125,-6.609375 -6.375,-6.625 -6.375,-18.109375 0,-11.21875 6.640625,-18 6.640625,-6.796875 17.671875,-6.796875 12.65625,0 19.3125,9.703125 6.671875,9.6875 6.671875,28.140625 0,17.234375 -8.1875,27.515625 -8.171875,10.28125 -21.984375,10.28125 -3.71875,0 -7.53125,-0.734375 -3.796875,-0.734375 -7.90625,-2.203125 m 19.625,-30.90625 q 6.640625,0 10.515625,-4.53125 3.890625,-4.546875 3.890625,-12.46875 0,-7.859375 -3.890625,-12.421875 -3.875,-4.5625 -10.515625,-4.5625 -6.640625,0 -10.515625,4.5625 -3.875,4.5625 -3.875,12.421875 0,7.921875 3.875,12.46875 3.875,4.53125 10.515625,4.53125"
         inkscape:connector-curvature="0" />
    </defs>
    <g
       style="fill:#000000"
       transform="matrix(0.22,0,0,0.22,247.28437,30.6875)"
       id="g544">
      <use
         xlink:href="#c_b672e4bee30772019085dff1098f516d"
         id="use546"
         x="0"
         y="0"
         width="516"
         height="372" />
      <path
         inkscape:connector-curvature="0"
         d="m 73.289062,-72.90625 14.703125,0 18.593753,49.609375 18.70312,-49.609375 14.70313,0 0,72.90625 -9.625,0 0,-64.015625 -18.79688,50 -9.90625,0 -18.796873,-50 0,64.015625 -9.578125,0 z"
         id="use548" />
      <use
         xlink:href="#c_cd96f817f3cab988d24a2b49a5577fe6"
         x="149.75586"
         id="use550"
         y="0"
         width="516"
         height="372" />
      <path
         inkscape:connector-curvature="0"
         d="m 245.16016,-66.40625 q -7.60938,0 -11.45313,7.5 -3.82812,7.484375 -3.82812,22.53125 0,14.984375 3.82812,22.484375 3.84375,7.5 11.45313,7.5 7.67187,0 11.5,-7.5 3.84375,-7.5 3.84375,-22.484375 0,-15.046875 -3.84375,-22.53125 -3.82813,-7.5 -11.5,-7.5 m 0,-7.8125 q 12.26562,0 18.73437,9.703125 6.46875,9.6875 6.46875,28.140625 0,18.40625 -6.46875,28.109375 -6.46875,9.6875 -18.73437,9.6875 -12.25,0 -18.71875,-9.6875 -6.46875,-9.703125 -6.46875,-28.109375 0,-18.453125 6.46875,-28.140625 6.46875,-9.703125 18.71875,-9.703125"
         id="use552" />
    </g>
  </g>
  <path
     inkscape:connector-curvature="0"
     style="fill:none;stroke:#ff0000;stroke-width:2;stroke-linecap:butt;stroke-linejoin:round;stroke-dasharray:6, 6;stroke-dashoffset:0"
     clip-path="url(#p85afda3df449e9901343cd6a43678f50-2)"
     d="m 365.54445,206.18167 0,0.0419 1e-5,0.0628 3e-5,0.0942 8e-5,0.14119 1.9e-4,0.20903 2.7e-4,0.20905 3.5e-4,0.20891 4.4e-4,0.20878 5.2e-4,0.20859 6e-4,0.20838 6.9e-4,0.2078 7.6e-4,0.20819 8.5e-4,0.20798 9.2e-4,0.20771 10e-4,0.20752 0.001,0.20724 10e-4,0.20614 0.001,0.20729 10e-4,0.20704 10e-4,0.2069 0.001,0.20626 0.002,0.20592 0.002,0.20609 0.002,0.20543 0.002,0.20505 0.002,0.20577 0.002,0.20457 0.002,0.20418 0.002,0.20563 0.002,0.2056 0.002,0.20533 0.002,0.20531 0.002,0.20458 0.002,0.20426 0.002,0.20425 0.002,0.20419 0.002,0.20388 0.002,0.20409 0.002,0.20378 0.002,0.20348 0.003,0.20188 0.003,0.20242 0.003,0.20206 0.003,0.20861 0.003,0.20328 0.003,0.203 0.003,0.20265 0.003,0.20238 0.003,0.20207 0.003,0.2079 0.003,0.20321 0.003,0.20295 0.003,0.20384 0.003,0.2028 0.003,0.20255 0.003,0.20138 0.003,0.20198 0.003,0.20575 0.003,0.2099 0.003,0.20387 0.003,0.20368 0.003,0.20058 0.003,0.20588 0.003,0.20577 0.003,0.19818 0.003,0.20673 0.003,0.20663 0.003,0.20235 0.003,0.20702 0.003,0.20693 0.003,0.20436 0.003,0.2036 0.003,0.20342 0.003,0.20586 0.003,0.20733 0.003,0.20805 0.003,0.21295 0.003,0.20667 0.002,0.20654 0.002,0.2043 0.002,0.20555 0.002,0.2054 0.002,0.20237 0.002,0.20469 0.002,0.20451 0.002,0.21129 0.002,0.20973 0.002,0.20964 0.002,0.20679 0.002,0.20978 0.002,0.20969 0.002,0.2033 0.002,0.21021 0.002,0.21011 0.002,0.20108 0.002,0.21076 0.002,0.21066 0.002,0.20504 10e-4,0.21092 0.001,0.21083 10e-4,0.21049 10e-4,0.21062 0.001,0.21049 10e-4,0.21175 0.001,0.21 10e-4,0.20986 9.5e-4,0.20962 8.8e-4,0.2096 8e-4,0.20943 7.3e-4,0.20932 6.5e-4,0.20922 5.8e-4,0.20904 5.1e-4,0.208 4.2e-4,0.20845 3.5e-4,0.20826 2.6e-4,0.21014 1.9e-4,0.2082 1.1e-4,0.20801 2e-5,0.17328"
     id="path6188" />
  <path
     inkscape:connector-curvature="0"
     style="fill:none;stroke:#ff0000;stroke-width:2;stroke-linecap:square;stroke-linejoin:round"
     clip-path="url(#p85afda3df449e9901343cd6a43678f50-2)"
     d="m 365.75848,231.82336 -0.33335,16.90123 -0.86467,12.15551 -1.28193,8.66191 -1.36501,5.31955 -1.76606,4.28768 -2.11553,3.15042 -2.02328,1.75687 -2.12408,1.13475 -2.06057,0.60003 -3.14902,0.0657 -3.15495,-0.59517 -4.12879,-1.529 -5.35289,-2.83663 -5.48779,-3.73891 -5.12409,-4.23862 -8.10207,-7.91158 -6.5458,-7.64369 -7.08062,-9.57918 -7.11102,-10.91994 -18.79296,-28.44755 -7.15717,-8.66428 -6.02186,-6.35049 -7.78527,-7.46195 -13.70822,-11.62728 -18.22602,-15.25363 -7.27153,-6.98083 -5.41975,-6.2136 -3.58063,-5.28145 -2.11643,-4.22934 -1.38658,-4.20053 -0.64798,-4.18946 0.42041,3.16136 0,0 1.206,4.19769 1.93845,4.22522 2.65842,4.26034 4.06705,5.16825 4.82494,5.10494 8.49625,7.76923 32.14585,27.20132 6.58465,6.53241 6.88497,7.73983 5.73544,7.28997 7.36169,10.65092 22.20542,33.80587 5.29957,6.48917 6.76996,7.24799 5.05208,4.76217 10.69894,7.84205 5.32765,2.69062 4.09663,1.3566 3.21259,0.45572 3.08858,-0.26459 2.0878,-0.70314 2.04746,-1.37288 1.93363,-1.99837 1.8524,-3.05278 1.65229,-4.31009 1.28095,-5.29094 1.1066,-7.55149 0.83629,-10.94661 0.39937,-14.89299 0.0133,-3.1299 0,0"
     id="path6191" />
  <g
     id="text18-7"
     transform="translate(-104.46471,-52.988889)">
    <g
       id="g6661"
       clip-path="url(#p85afda3df449e9901343cd6a43678f50-2)">
      <g
         id="g6663"
         transform="matrix(0.12,0,0,0.12,13.628571,101.99025)"
         style="fill:#ff0000">
        <path
           inkscape:connector-curvature="0"
           id="use6665"
           d="" />
      </g>
    </g>
  </g>
  <g
     id="text21-1"
     transform="translate(-104.46471,-52.988889)">
    <g
       id="g6685"
       clip-path="url(#p85afda3df449e9901343cd6a43678f50-2)">
      <g
         id="g6687"
         transform="matrix(0.12,0,0,0.12,366.00916,206.44815)"
         style="fill:#ff0000">
        <path
           inkscape:connector-curvature="0"
           id="use6689"
           d="" />
      </g>
    </g>
  </g>
  <text
     xml:space="preserve"
     style="font-size:11.19999981px;font-style:normal;font-weight:normal;text-align:center;line-height:125%;letter-spacing:0px;word-spacing:0px;text-anchor:middle;fill:#ff0000;fill-opacity:1;stroke:none;font-family:Bitstream Vera Sans"
     x="308.19742"
     y="-135.21588"
     id="text9531"
     sodipodi:linespacing="125%"
     transform="matrix(0.75527449,0.65540861,-0.65540861,0.75527449,0,0)"><tspan
       sodipodi:role="line"
       id="tspan9533"
       x="308.19742"
       y="-135.21588">max I(t)</tspan></text>
  <text
     xml:space="preserve"
     style="font-size:11.19999981px;font-style:normal;font-weight:normal;text-align:center;line-height:125%;letter-spacing:0px;word-spacing:0px;text-anchor:middle;fill:#ff0000;fill-opacity:1;stroke:none;font-family:Bitstream Vera Sans"
     x="294.6813"
     y="-36.837017"
     id="text9535"
     sodipodi:linespacing="125%"
     transform="matrix(0.699759,0.71437899,-0.71437899,0.699759,0,0)"
     inkscape:transform-center-x="3.8153595"
     inkscape:transform-center-y="20.874308"><tspan
       sodipodi:role="line"
       id="tspan9537"
       x="294.6813"
       y="-36.837017">min I(t)</tspan></text>
  <text
     xml:space="preserve"
     style="font-size:11.19999981px;font-style:normal;font-weight:normal;text-align:center;line-height:125%;letter-spacing:0px;word-spacing:0px;text-anchor:middle;fill:#000000;fill-opacity:1;stroke:none;font-family:Bitstream Vera Sans"
     x="424.87845"
     y="162.00261"
     id="text9539"
     sodipodi:linespacing="125%"><tspan
       sodipodi:role="line"
       id="tspan9541"
       x="424.87845"
       y="162.00261">sub-critical</tspan><tspan
       sodipodi:role="line"
       x="424.87845"
       y="176.00261"
       id="tspan9543">Hopf bifurcation</tspan></text>
  <path
     style="fill:none;stroke:#000000;stroke-width:1px;stroke-linecap:butt;stroke-linejoin:miter;stroke-opacity:1;marker-mid:none;marker-start:none;marker-end:url(#Arrow1Mend)"
     d="M 498.28595,224.63235 461.6585,263.54902"
     id="path9545"
     inkscape:connector-curvature="0"
     transform="scale(0.8,0.8)" />
  <text
     sodipodi:linespacing="125%"
     id="text11669"
     y="72.683411"
     x="148.589"
     style="font-size:11.19999981px;font-style:normal;font-weight:normal;text-align:center;line-height:125%;letter-spacing:0px;word-spacing:0px;text-anchor:middle;fill:#000000;fill-opacity:1;stroke:none;font-family:Bitstream Vera Sans"
     xml:space="preserve"><tspan
       y="72.683411"
       x="148.589"
       id="tspan11671"
       sodipodi:role="line">super-critical</tspan><tspan
       id="tspan11673"
       y="86.683411"
       x="148.589"
       sodipodi:role="line">Hopf bifurcation</tspan></text>
  <text
     xml:space="preserve"
     style="font-size:11.19999981px;font-style:normal;font-weight:normal;text-align:center;line-height:125%;letter-spacing:0px;word-spacing:0px;text-anchor:middle;fill:#000000;fill-opacity:1;stroke:none;font-family:Bitstream Vera Sans"
     x="280.20001"
     y="302.40784"
     id="text11675"
     sodipodi:linespacing="125%"><tspan
       sodipodi:role="line"
       id="tspan11677"
       x="280.20001"
       y="302.40784">present-day</tspan><tspan
       sodipodi:role="line"
       x="280.20001"
       y="316.40784"
       id="tspan11679">in SM90</tspan></text>
  <path
     transform="scale(0.8,0.8)"
     inkscape:connector-curvature="0"
     id="path11681"
     d="m 392.98203,384.11438 38.91667,-24.4183"
     style="fill:none;stroke:#000000;stroke-width:1px;stroke-linecap:butt;stroke-linejoin:miter;stroke-opacity:1;marker-start:none;marker-mid:none;marker-end:url(#Arrow1Mend)"
     sodipodi:nodetypes="cc" />
  <text
     xml:space="preserve"
     style="font-size:16px;font-style:normal;font-weight:normal;text-align:center;line-height:125%;letter-spacing:0px;word-spacing:0px;text-anchor:middle;fill:#000000;fill-opacity:1;stroke:none;font-family:Bitstream Vera Sans"
     x="-185.60338"
     y="29.095531"
     id="text11789"
     sodipodi:linespacing="125%"
     transform="matrix(0,-1,1,0,0,0)"><tspan
       sodipodi:role="line"
       id="tspan11791"
       x="-185.60338"
       y="29.095531">Continental Ice mass (1E18 kg)</tspan></text>
  <path
     sodipodi:nodetypes="cc"
     style="fill:none;stroke:#000000;stroke-width:0.80000001px;stroke-linecap:butt;stroke-linejoin:miter;stroke-opacity:1;marker-start:none;marker-mid:none;marker-end:url(#Arrow1Mend)"
     d="m 163.12041,91.819275 36.72196,27.409815"
     id="path11855"
     inkscape:connector-curvature="0" />
  <text
     xml:space="preserve"
     style="font-size:16px;font-style:normal;font-weight:normal;text-align:end;line-height:125%;letter-spacing:0px;word-spacing:0px;text-anchor:end;fill:#000000;fill-opacity:1;stroke:none;font-family:Bitstream Vera Sans"
     x="62.592602"
     y="335.67392"
     id="text12199"
     sodipodi:linespacing="125%"><tspan
       sodipodi:role="line"
       id="tspan12201"
       x="62.592602"
       y="335.67392">0</tspan></text>
  <text
     xml:space="preserve"
     style="font-size:16px;font-style:normal;font-weight:normal;text-align:end;line-height:125%;letter-spacing:0px;word-spacing:0px;text-anchor:end;fill:#000000;fill-opacity:1;stroke:none;font-family:Bitstream Vera Sans"
     x="62.592602"
     y="277.55225"
     id="text12203"
     sodipodi:linespacing="125%"><tspan
       sodipodi:role="line"
       id="tspan12205"
       x="62.592602"
       y="277.55225">20</tspan></text>
  <text
     xml:space="preserve"
     style="font-size:20px;font-style:normal;font-weight:normal;text-align:end;line-height:125%;letter-spacing:0px;word-spacing:0px;text-anchor:end;fill:#000000;fill-opacity:1;stroke:none;font-family:Bitstream Vera Sans"
     x="78.240753"
     y="270.09671"
     id="text12207"
     sodipodi:linespacing="125%"
     transform="scale(0.8,0.8)"><tspan
       sodipodi:role="line"
       id="tspan12209"
       x="78.240753"
       y="270.09671">40</tspan></text>
  <text
     xml:space="preserve"
     style="font-size:16px;font-style:normal;font-weight:normal;text-align:end;line-height:125%;letter-spacing:0px;word-spacing:0px;text-anchor:end;fill:#000000;fill-opacity:1;stroke:none;font-family:Bitstream Vera Sans"
     x="62.592602"
     y="156.27908"
     id="text12211"
     sodipodi:linespacing="125%"><tspan
       sodipodi:role="line"
       id="tspan12213"
       x="62.592602"
       y="156.27908">60</tspan></text>
  <text
     xml:space="preserve"
     style="font-size:16px;font-style:normal;font-weight:normal;text-align:center;line-height:125%;letter-spacing:0px;word-spacing:0px;text-anchor:middle;fill:#000000;fill-opacity:1;stroke:none;font-family:Bitstream Vera Sans"
     x="52.405102"
     y="97.03965"
     id="text12215"
     sodipodi:linespacing="125%"><tspan
       sodipodi:role="line"
       id="tspan12217"
       x="52.405102"
       y="97.03965">80</tspan></text>
  <text
     xml:space="preserve"
     style="font-size:16px;font-style:normal;font-weight:normal;text-align:center;line-height:125%;letter-spacing:0px;word-spacing:0px;text-anchor:middle;fill:#000000;fill-opacity:1;stroke:none;font-family:Bitstream Vera Sans"
     x="71.534401"
     y="353.55756"
     id="text12219"
     sodipodi:linespacing="125%"><tspan
       sodipodi:role="line"
       id="tspan12221"
       x="71.534401"
       y="353.55756">-25</tspan></text>
  <text
     xml:space="preserve"
     style="font-size:16px;font-style:normal;font-weight:normal;text-align:center;line-height:125%;letter-spacing:0px;word-spacing:0px;text-anchor:middle;fill:#000000;fill-opacity:1;stroke:none;font-family:Bitstream Vera Sans"
     x="130.21497"
     y="353.55756"
     id="text12227"
     sodipodi:linespacing="125%"><tspan
       sodipodi:role="line"
       id="tspan12229"
       x="130.21497"
       y="353.55756">-20</tspan></text>
  <text
     xml:space="preserve"
     style="font-size:16px;font-style:normal;font-weight:normal;text-align:center;line-height:125%;letter-spacing:0px;word-spacing:0px;text-anchor:middle;fill:#000000;fill-opacity:1;stroke:none;font-family:Bitstream Vera Sans"
     x="189.45438"
     y="353.55756"
     id="text12231"
     sodipodi:linespacing="125%"><tspan
       sodipodi:role="line"
       id="tspan12233"
       x="189.45438"
       y="353.55756">-15</tspan></text>
  <text
     xml:space="preserve"
     style="font-size:16px;font-style:normal;font-weight:normal;text-align:center;line-height:125%;letter-spacing:0px;word-spacing:0px;text-anchor:middle;fill:#000000;fill-opacity:1;stroke:none;font-family:Bitstream Vera Sans"
     x="247.5761"
     y="353.55756"
     id="text12235"
     sodipodi:linespacing="125%"><tspan
       sodipodi:role="line"
       id="tspan12237"
       x="247.5761"
       y="353.55756">-10</tspan></text>
  <text
     xml:space="preserve"
     style="font-size:16px;font-style:normal;font-weight:normal;text-align:center;line-height:125%;letter-spacing:0px;word-spacing:0px;text-anchor:middle;fill:#000000;fill-opacity:1;stroke:none;font-family:Bitstream Vera Sans"
     x="304.58005"
     y="353.55756"
     id="text12239"
     sodipodi:linespacing="125%"><tspan
       sodipodi:role="line"
       id="tspan12241"
       x="304.58005"
       y="353.55756">-5</tspan></text>
  <text
     xml:space="preserve"
     style="font-size:16px;font-style:normal;font-weight:normal;text-align:center;line-height:125%;letter-spacing:0px;word-spacing:0px;text-anchor:middle;fill:#000000;fill-opacity:1;stroke:none;font-family:Bitstream Vera Sans"
     x="360.46631"
     y="353.55756"
     id="text12243"
     sodipodi:linespacing="125%"><tspan
       sodipodi:role="line"
       id="tspan12245"
       x="360.46631"
       y="353.55756">0</tspan></text>
  <text
     xml:space="preserve"
     style="font-size:20px;font-style:normal;font-weight:normal;text-align:center;line-height:125%;letter-spacing:0px;word-spacing:0px;text-anchor:middle;fill:#000000;fill-opacity:1;stroke:none;font-family:Bitstream Vera Sans"
     x="529.52222"
     y="441.94693"
     id="text12247"
     sodipodi:linespacing="125%"
     transform="scale(0.8,0.8)"><tspan
       sodipodi:role="line"
       id="tspan12249"
       x="529.52222"
       y="441.94693">5</tspan></text>
  <text
     xml:space="preserve"
     style="font-size:20px;font-style:normal;font-weight:normal;text-align:center;line-height:125%;letter-spacing:0px;word-spacing:0px;text-anchor:middle;fill:#000000;fill-opacity:1;stroke:none;font-family:Bitstream Vera Sans"
     x="602.17432"
     y="441.94693"
     id="text12251"
     sodipodi:linespacing="125%"
     transform="scale(0.8,0.8)"><tspan
       sodipodi:role="line"
       id="tspan12253"
       x="602.17432"
       y="441.94693">10</tspan></text>
  <text
     xml:space="preserve"
     style="font-size:16px;font-style:normal;font-weight:normal;text-align:center;line-height:125%;letter-spacing:0px;word-spacing:0px;text-anchor:middle;fill:#000000;fill-opacity:1;stroke:none;font-family:Bitstream Vera Sans"
     x="278.31354"
     y="372"
     id="text12255"
     sodipodi:linespacing="125%"><tspan
       sodipodi:role="line"
       id="tspan12257"
       x="278.31354"
       y="372">Tectonic CO2 forcing F<tspan
   style="font-style:normal;font-variant:normal;font-weight:normal;font-stretch:normal;font-family:Symbol;-inkscape-font-specification:Symbol"
   id="tspan12259">m</tspan> (ppm / ka)</tspan></text>
</svg>
