<?xml version="1.0" standalone="no"?>
<!DOCTYPE svg PUBLIC "-//W3C//DTD SVG 1.1//EN"
  "http://www.w3.org/Graphics/SVG/1.1/DTD/svg11.dtd">
<!-- Created with matplotlib (http://matplotlib.sourceforge.net/) -->
<svg width="516pt" height="372pt" viewBox="0 0 516 372"
   xmlns="http://www.w3.org/2000/svg"
   xmlns:xlink="http://www.w3.org/1999/xlink"
   version="1.1"
   id="svg1">
<g id="figure1">
<g id="patch1">
<path style="fill: #ffffff; stroke: #ffffff; stroke-width: 1.000000; stroke-linejoin: round; stroke-linecap: square;  opacity: 1.000000"  d="M0.000000 372.600000L516.600000 372.600000L516.600000 0.000000
L0.000000 0.000000L0.000000 372.600000"/>
</g>
<g id="axes1">
<g id="patch2">
<path style="fill: #ffffff; opacity: 1.000000"  d="M72.000000 336.600000L480.600000 336.600000L480.600000 36.000000
L72.000000 36.000000L72.000000 336.600000"/>
</g>
<g id="line2d1">
<defs>
  <clipPath id="p85afda3df449e9901343cd6a43678f50">
<rect x="72.000000" y="36.000000" width="408.600000" height="300.600000"/>
  </clipPath>
</defs><path style="fill: none; stroke: #000000; stroke-width: 2.000000; stroke-linejoin: round; stroke-linecap: square;  opacity: 1.000000" clip-path="url(#p85afda3df449e9901343cd6a43678f50)" d="M480.600000 266.700248L458.164528 261.865457L439.866855 257.292007
L424.199502 252.718555L410.952960 248.145104L400.276122 243.734990
L392.060153 239.651551L385.296843 235.568113L379.643682 231.321336
L375.232682 227.074560L371.679130 222.501108L369.162137 217.927656
L367.472196 213.354205L366.203638 207.637390L366.029706 206.494027
L366.029706 206.494027"/>
</g>
<g id="line2d2">
<path style="fill: none; stroke: #000000; stroke-width: 2.000000; stroke-linejoin: round; stroke-linecap: butt; stroke-dasharray: 6.000000,6.000000; stroke-dashoffset: 0.000000; opacity: 1.000000" clip-path="url(#p85afda3df449e9901343cd6a43678f50)" d="M366.009155 206.349621L362.923241 185.769089L361.132816 181.195637
L358.486758 176.622185L355.814674 173.192097L351.544099 168.945320
L346.051881 164.698544L339.462674 160.615105L331.086931 156.368328
L321.834066 152.448227L310.985047 148.528126L297.277708 144.281350
L281.374520 140.034574L261.599893 135.461123L238.874551 130.887673
L211.013555 125.987547L204.983343 125.007522L204.983343 125.007522"/>
</g>
<g id="line2d3">
<path style="fill: none; stroke: #000000; stroke-width: 2.000000; stroke-linejoin: round; stroke-linecap: square;  opacity: 1.000000" clip-path="url(#p85afda3df449e9901343cd6a43678f50)" d="M204.885668 124.991855L171.161750 119.928393L131.638136 114.701594
L85.538538 109.311459L32.011228 103.757987L13.628571 101.990252
L13.628571 101.990252"/>
</g>
<g id="line2d4">
<path style="fill: none; stroke: #ff0000; stroke-width: 2.000000; stroke-linejoin: round; stroke-linecap: square;  opacity: 1.000000" clip-path="url(#p85afda3df449e9901343cd6a43678f50)" d="M366.009155 206.349621L366.009155 206.370561"/>
</g>
<g id="line2d5">
<path style="fill: none; stroke: #ff0000; stroke-width: 2.000000; stroke-linejoin: round; stroke-linecap: butt; stroke-dasharray: 6.000000,6.000000; stroke-dashoffset: 0.000000; opacity: 1.000000" clip-path="url(#p85afda3df449e9901343cd6a43678f50)" d="M366.009155 206.370561L366.009159 206.412437L366.009170 206.475246
L366.009201 206.569421L366.009280 206.710609L366.009467 206.919645
L366.009738 207.128686L366.010093 207.337604L366.010531 207.546377
L366.011051 207.754966L366.011654 207.963350L366.012338 208.171155
L366.013103 208.379342L366.013948 208.587318L366.014873 208.795033
L366.015875 209.002552L366.016955 209.209793L366.018110 209.415929
L366.019340 209.623217L366.020644 209.830260L366.022021 210.037163
L366.023468 210.243420L366.024985 210.449341L366.026570 210.655434
L366.028221 210.860860L366.029938 211.065912L366.031718 211.271678
L366.033559 211.476252L366.035461 211.680426L366.037421 211.886059
L366.039438 212.091658L366.041509 212.296988L366.043634 212.502299
L366.045809 212.706883L366.048034 212.911145L366.050307 213.115386
L366.052625 213.319579L366.054986 213.523455L366.057390 213.727547
L366.059833 213.931333L366.062314 214.134807L366.064831 214.336692
L366.067382 214.539110L366.069966 214.741168L366.072579 214.949783
L366.075220 215.153065L366.077888 215.356059L366.080580 215.558711
L366.083294 215.761093L366.086029 215.963165L366.088782 216.171056
L366.091551 216.374267L366.094335 216.577224L366.097132 216.781056
L366.099939 216.983862L366.102755 217.186414L366.105578 217.387787
L366.108405 217.589769L366.111236 217.795517L366.114068 218.005416
L366.116899 218.209287L366.119728 218.412966L366.122552 218.613554
L366.125370 218.819435L366.128179 219.025200L366.130979 219.223385
L366.133767 219.430109L366.136541 219.636745L366.139300 219.839091
L366.142042 220.046107L366.144765 220.253038L366.147467 220.457400
L366.150147 220.661002L366.152803 220.864416L366.155433 221.070284
L366.158035 221.277614L366.160609 221.485659L366.163151 221.698614
L366.165661 221.905278L366.168137 222.111822L366.170578 222.316125
L366.172981 222.521674L366.175345 222.727071L366.177669 222.929445
L366.179951 223.134128L366.182189 223.338637L366.184383 223.549933
L366.186531 223.759657L366.188630 223.969304L366.190681 224.176092
L366.192681 224.385871L366.194628 224.595561L366.196523 224.798859
L366.198363 225.009068L366.200147 225.219183L366.201874 225.420257
L366.203542 225.631018L366.205151 225.841684L366.206698 226.046717
L366.208184 226.257645L366.209606 226.468469L366.210963 226.678960
L366.212255 226.889578L366.213481 227.100073L366.214638 227.311823
L366.215727 227.521823L366.216745 227.731681L366.217693 227.941302
L366.218569 228.150897L366.219372 228.360335L366.220101 228.569653
L366.220755 228.778868L366.221334 228.987911L366.221836 229.195910
L366.222260 229.404358L366.222607 229.612617L366.222874 229.822760
L366.223061 230.030963L366.223167 230.238969L366.223194 230.412252"/>
</g>
<g id="line2d6">
<path style="fill: none; stroke: #ff0000; stroke-width: 2.000000; stroke-linejoin: round; stroke-linecap: square;  opacity: 1.000000" clip-path="url(#p85afda3df449e9901343cd6a43678f50)" d="M366.223194 230.412252L365.889845 247.313483L365.025167 259.468987
L363.743244 268.130901L362.378227 273.450447L360.612169 277.738135
L358.496644 280.888555L356.473359 282.645420L354.349284 283.780175
L352.288712 284.380197L349.139686 284.445845L345.984738 283.850684
L341.855955 282.321678L336.503057 279.485046L331.015271 275.746140
L325.891185 271.507521L317.789109 263.595937L311.243310 255.952251
L304.162694 246.373075L297.051669 235.453131L278.258708 207.005583
L271.101540 198.341303L265.079683 191.990815L257.294414 184.528858
L243.586186 172.901581L225.360170 157.647947L218.088637 150.667118
L212.668886 144.453520L209.088260 139.172070L206.971829 134.942726
L205.585254 130.742203L204.937273 126.552740L205.357682 129.714103
L205.357682 129.714103L206.563684 133.911794L208.502135 138.137014
L211.160550 142.397346L215.227599 147.565603L220.052544 152.670537
L228.548790 160.439774L260.694637 187.641089L267.279287 194.173497
L274.164258 201.913329L279.899698 209.203301L287.261394 219.854216
L309.466813 253.660090L314.766379 260.149258L321.536345 267.397247
L326.588422 272.159422L337.287364 280.001470L342.615013 282.692089
L346.711640 284.048695L349.924234 284.504414L353.012813 284.239817
L355.100613 283.536677L357.148070 282.163798L359.081701 280.165434
L360.934102 277.112651L362.586390 272.802556L363.867344 267.511623
L364.973936 259.960135L365.810234 249.013522L366.209604 234.120526
L366.222878 230.990628L366.222878 230.990628"/>
</g>
<g id="line2d7">
<path style="fill: none; stroke: #ff0000; stroke-width: 2.000000; stroke-linejoin: round; stroke-linecap: butt; stroke-dasharray: 6.000000,6.000000; stroke-dashoffset: 0.000000; opacity: 1.000000" clip-path="url(#p85afda3df449e9901343cd6a43678f50)" d="M366.223194 230.412648L366.223153 230.200941L366.223031 229.992482
L366.222828 229.783831L366.222545 229.573438L366.222183 229.364861
L366.221744 229.156102L366.221227 228.944810L366.220633 228.736377
L366.219964 228.527766L366.219221 228.316690L366.218403 228.108353
L366.217513 227.899845L366.216552 227.689090L366.215519 227.480830
L366.214417 227.272406L366.213246 227.061951L366.212008 226.853783
L366.210703 226.645456L366.209333 226.432171L366.207898 226.224720
L366.206401 226.017109L366.204841 225.803304L366.203221 225.596464
L366.201541 225.389462L366.199803 225.171545L366.198008 224.965722
L366.196157 224.759731L366.194252 224.555893L366.192294 224.349211
L366.190284 224.142382L366.188224 223.934122L366.186115 223.727374
L366.183958 223.520488L366.181755 223.312037L366.179508 223.105476
L366.177218 222.898782L366.174886 222.687796L366.172514 222.482215
L366.170104 222.276486L366.167656 222.059409L366.165173 221.855404
L366.162657 221.651224L366.160108 221.443326L366.157529 221.235088
L366.154921 221.027668L366.152286 220.824059L366.149625 220.616105
L366.146941 220.412744L366.144235 220.208940L366.141508 220.005767
L366.138763 219.802399L366.136000 219.594268L366.133223 219.391361
L366.130433 219.188247L366.127631 218.985745L366.124820 218.780132
L366.122000 218.574398L366.119175 218.365073L366.116346 218.163061
L366.113515 217.960800L366.110683 217.753808L366.107852 217.551485
L366.105026 217.349369L366.102204 217.144377L366.099389 216.942281
L366.096584 216.739912L366.093790 216.532316L366.091009 216.329539
L366.088242 216.127623L366.085493 215.923897L366.082762 215.718936
L366.080052 215.515417L366.077365 215.315814L366.074702 215.111368
L366.072066 214.906709L366.069458 214.706099L366.066881 214.501952
L366.064337 214.297555L366.061826 214.095313L366.059353 213.891219
L366.056917 213.686850L366.054522 213.483729L366.052168 213.279672
L366.049859 213.075310L366.047596 212.871282L366.045380 212.666715
L366.043215 212.461847L366.041100 212.256705L366.039039 212.051276
L366.037034 211.845584L366.035085 211.641321L366.033195 211.435361
L366.031365 211.230305L366.029597 211.026929L366.027894 210.821362
L366.026255 210.615467L366.024683 210.408857L366.023180 210.202988
L366.021746 209.996775L366.020384 209.789606L366.019094 209.583182
L366.017878 209.376425L366.016738 209.169354L366.015673 208.962012
L366.014686 208.754406L366.013777 208.546636L366.012948 208.338893
L366.012198 208.130884L366.011530 207.922110L366.010943 207.713551
L366.010439 207.505154L366.010017 207.296862L366.009679 207.087923
L366.009424 206.878854L366.009253 206.669728L366.009167 206.460459
L366.009164 206.448149L366.009164 206.448150"/>
</g>
<g id="line2d8">
<path style="fill: none; stroke: #ff0000; stroke-width: 2.000000; stroke-linejoin: round; stroke-linecap: square;  opacity: 1.000000" clip-path="url(#p85afda3df449e9901343cd6a43678f50)" d="M204.885668 124.991855L204.885664 125.000581L204.885664 125.000590"/>
</g>
<g id="matplotlib.axis1">
<g id="xtick1">
<g id="line2d9">
<defs><path id="m30e32995789d870ad79a2e54c91cf9c6" d="M0.000000 0.000000L0.000000 -4.000000"/></defs>
<g ><use style="fill: none; stroke: #000000; stroke-width: 0.500000; stroke-linejoin: round; stroke-linecap: butt;  opacity: 1.000000" xlink:href="#m30e32995789d870ad79a2e54c91cf9c6" x="72.000000" y="336.600000"/>
</g></g>
<g id="line2d10">
<defs><path id="m9281cae24120827b11d5ea8a7ad3e96b" d="M0.000000 0.000000L0.000000 4.000000"/></defs>
<g ><use style="fill: none; stroke: #000000; stroke-width: 0.500000; stroke-linejoin: round; stroke-linecap: butt;  opacity: 1.000000" xlink:href="#m9281cae24120827b11d5ea8a7ad3e96b" x="72.000000" y="36.000000"/>
</g></g>
<g id="text1">
<defs>
<path id="c_6a8d56c819c37117ab4cf023bec22a5a" d="M10.593750 -35.500000l62.593750 0.000000l0.000000 8.296875l-62.593750 0.000000z"/>
<path id="c_7a2040fe3b94fcd41d0a72c84e93b115" d="M31.781250 -66.406250q-7.609375 0.000000 -11.453125 7.500000q-3.828125 7.484375 -3.828125 22.531250q0.000000 14.984375 3.828125 22.484375q3.843750 7.500000 11.453125 7.500000q7.671875 0.000000 11.500000 -7.500000q3.843750 -7.500000 3.843750 -22.484375q0.000000 -15.046875 -3.843750 -22.531250q-3.828125 -7.500000 -11.500000 -7.500000M31.781250 -74.218750q12.265625 0.000000 18.734375 9.703125q6.468750 9.687500 6.468750 28.140625q0.000000 18.406250 -6.468750 28.109375q-6.468750 9.687500 -18.734375 9.687500q-12.250000 0.000000 -18.718750 -9.687500q-6.468750 -9.703125 -6.468750 -28.109375q0.000000 -18.453125 6.468750 -28.140625q6.468750 -9.703125 18.718750 -9.703125"/>
<path id="c_ed3e21196fb739f392806f09ca0594ef" d="M10.687500 -12.406250l10.312500 0.000000l0.000000 12.406250l-10.312500 0.000000z"/>
<path id="c_ed3f3ed3ebfbd18bcb9c012009a68ad1" d="M19.187500 -8.296875l34.421875 0.000000l0.000000 8.296875l-46.281250 0.000000l0.000000 -8.296875q5.609375 -5.812500 15.296875 -15.593750q9.703125 -9.796875 12.187500 -12.640625q4.734375 -5.312500 6.609375 -9.000000q1.890625 -3.687500 1.890625 -7.250000q0.000000 -5.812500 -4.078125 -9.468750q-4.078125 -3.671875 -10.625000 -3.671875q-4.640625 0.000000 -9.796875 1.609375q-5.140625 1.609375 -11.000000 4.890625l0.000000 -9.968750q5.953125 -2.390625 11.125000 -3.609375q5.187500 -1.218750 9.484375 -1.218750q11.328125 0.000000 18.062500 5.671875q6.734375 5.656250 6.734375 15.125000q0.000000 4.500000 -1.687500 8.531250q-1.671875 4.015625 -6.125000 9.484375q-1.218750 1.421875 -7.765625 8.187500q-6.531250 6.765625 -18.453125 18.921875"/>
<path id="c_1260a2df50f305f3db244e29828f968e" d="M10.796875 -72.906250l38.718750 0.000000l0.000000 8.312500l-29.687500 0.000000l0.000000 17.859375q2.140625 -0.734375 4.281250 -1.093750q2.156250 -0.359375 4.312500 -0.359375q12.203125 0.000000 19.328125 6.687500q7.140625 6.687500 7.140625 18.109375q0.000000 11.765625 -7.328125 18.296875q-7.328125 6.515625 -20.656250 6.515625q-4.593750 0.000000 -9.359375 -0.781250q-4.750000 -0.781250 -9.828125 -2.343750l0.000000 -9.921875q4.390625 2.390625 9.078125 3.562500q4.687500 1.171875 9.906250 1.171875q8.453125 0.000000 13.375000 -4.437500q4.937500 -4.437500 4.937500 -12.062500q0.000000 -7.609375 -4.937500 -12.046875q-4.921875 -4.453125 -13.375000 -4.453125q-3.953125 0.000000 -7.890625 0.875000q-3.921875 0.875000 -8.015625 2.734375z"/>
</defs>
<g style="fill: #000000; opacity: 1.000000" transform="translate(50.937500,349.506250)scale(0.120000)">
<use xlink:href="#c_6a8d56c819c37117ab4cf023bec22a5a"/>
<use xlink:href="#c_7a2040fe3b94fcd41d0a72c84e93b115" x="83.789062"/>
<use xlink:href="#c_ed3e21196fb739f392806f09ca0594ef" x="147.412109"/>
<use xlink:href="#c_7a2040fe3b94fcd41d0a72c84e93b115" x="179.199219"/>
<use xlink:href="#c_ed3f3ed3ebfbd18bcb9c012009a68ad1" x="242.822266"/>
<use xlink:href="#c_1260a2df50f305f3db244e29828f968e" x="306.445312"/>
</g>
</g>
</g>
<g id="xtick2">
<g id="line2d11">
<g ><use style="fill: none; stroke: #000000; stroke-width: 0.500000; stroke-linejoin: round; stroke-linecap: butt;  opacity: 1.000000" xlink:href="#m30e32995789d870ad79a2e54c91cf9c6" x="130.371429" y="336.600000"/>
</g></g>
<g id="line2d12">
<g ><use style="fill: none; stroke: #000000; stroke-width: 0.500000; stroke-linejoin: round; stroke-linecap: butt;  opacity: 1.000000" xlink:href="#m9281cae24120827b11d5ea8a7ad3e96b" x="130.371429" y="36.000000"/>
</g></g>
<g id="text2">
<g style="fill: #000000; opacity: 1.000000" transform="translate(109.183929,349.506250)scale(0.120000)">
<use xlink:href="#c_6a8d56c819c37117ab4cf023bec22a5a"/>
<use xlink:href="#c_7a2040fe3b94fcd41d0a72c84e93b115" x="83.789062"/>
<use xlink:href="#c_ed3e21196fb739f392806f09ca0594ef" x="147.412109"/>
<use xlink:href="#c_7a2040fe3b94fcd41d0a72c84e93b115" x="179.199219"/>
<use xlink:href="#c_ed3f3ed3ebfbd18bcb9c012009a68ad1" x="242.822266"/>
<use xlink:href="#c_7a2040fe3b94fcd41d0a72c84e93b115" x="306.445312"/>
</g>
</g>
</g>
<g id="xtick3">
<g id="line2d13">
<g ><use style="fill: none; stroke: #000000; stroke-width: 0.500000; stroke-linejoin: round; stroke-linecap: butt;  opacity: 1.000000" xlink:href="#m30e32995789d870ad79a2e54c91cf9c6" x="188.742857" y="336.600000"/>
</g></g>
<g id="line2d14">
<g ><use style="fill: none; stroke: #000000; stroke-width: 0.500000; stroke-linejoin: round; stroke-linecap: butt;  opacity: 1.000000" xlink:href="#m9281cae24120827b11d5ea8a7ad3e96b" x="188.742857" y="36.000000"/>
</g></g>
<g id="text3">
<defs>
<path id="c_42baa63129a918535c52adb20d687ea7" d="M12.406250 -8.296875l16.109375 0.000000l0.000000 -55.625000l-17.531250 3.515625l0.000000 -8.984375l17.437500 -3.515625l9.859375 0.000000l0.000000 64.609375l16.109375 0.000000l0.000000 8.296875l-41.984375 0.000000z"/>
</defs>
<g style="fill: #000000; opacity: 1.000000" transform="translate(167.680357,349.506250)scale(0.120000)">
<use xlink:href="#c_6a8d56c819c37117ab4cf023bec22a5a"/>
<use xlink:href="#c_7a2040fe3b94fcd41d0a72c84e93b115" x="83.789062"/>
<use xlink:href="#c_ed3e21196fb739f392806f09ca0594ef" x="147.412109"/>
<use xlink:href="#c_7a2040fe3b94fcd41d0a72c84e93b115" x="179.199219"/>
<use xlink:href="#c_42baa63129a918535c52adb20d687ea7" x="242.822266"/>
<use xlink:href="#c_1260a2df50f305f3db244e29828f968e" x="306.445312"/>
</g>
</g>
</g>
<g id="xtick4">
<g id="line2d15">
<g ><use style="fill: none; stroke: #000000; stroke-width: 0.500000; stroke-linejoin: round; stroke-linecap: butt;  opacity: 1.000000" xlink:href="#m30e32995789d870ad79a2e54c91cf9c6" x="247.114286" y="336.600000"/>
</g></g>
<g id="line2d16">
<g ><use style="fill: none; stroke: #000000; stroke-width: 0.500000; stroke-linejoin: round; stroke-linecap: butt;  opacity: 1.000000" xlink:href="#m9281cae24120827b11d5ea8a7ad3e96b" x="247.114286" y="36.000000"/>
</g></g>
<g id="text4">
<g style="fill: #000000; opacity: 1.000000" transform="translate(225.926786,349.506250)scale(0.120000)">
<use xlink:href="#c_6a8d56c819c37117ab4cf023bec22a5a"/>
<use xlink:href="#c_7a2040fe3b94fcd41d0a72c84e93b115" x="83.789062"/>
<use xlink:href="#c_ed3e21196fb739f392806f09ca0594ef" x="147.412109"/>
<use xlink:href="#c_7a2040fe3b94fcd41d0a72c84e93b115" x="179.199219"/>
<use xlink:href="#c_42baa63129a918535c52adb20d687ea7" x="242.822266"/>
<use xlink:href="#c_7a2040fe3b94fcd41d0a72c84e93b115" x="306.445312"/>
</g>
</g>
</g>
<g id="xtick5">
<g id="line2d17">
<g ><use style="fill: none; stroke: #000000; stroke-width: 0.500000; stroke-linejoin: round; stroke-linecap: butt;  opacity: 1.000000" xlink:href="#m30e32995789d870ad79a2e54c91cf9c6" x="305.485714" y="336.600000"/>
</g></g>
<g id="line2d18">
<g ><use style="fill: none; stroke: #000000; stroke-width: 0.500000; stroke-linejoin: round; stroke-linecap: butt;  opacity: 1.000000" xlink:href="#m9281cae24120827b11d5ea8a7ad3e96b" x="305.485714" y="36.000000"/>
</g></g>
<g id="text5">
<g style="fill: #000000; opacity: 1.000000" transform="translate(284.423214,349.506250)scale(0.120000)">
<use xlink:href="#c_6a8d56c819c37117ab4cf023bec22a5a"/>
<use xlink:href="#c_7a2040fe3b94fcd41d0a72c84e93b115" x="83.789062"/>
<use xlink:href="#c_ed3e21196fb739f392806f09ca0594ef" x="147.412109"/>
<use xlink:href="#c_7a2040fe3b94fcd41d0a72c84e93b115" x="179.199219"/>
<use xlink:href="#c_7a2040fe3b94fcd41d0a72c84e93b115" x="242.822266"/>
<use xlink:href="#c_1260a2df50f305f3db244e29828f968e" x="306.445312"/>
</g>
</g>
</g>
<g id="xtick6">
<g id="line2d19">
<g ><use style="fill: none; stroke: #000000; stroke-width: 0.500000; stroke-linejoin: round; stroke-linecap: butt;  opacity: 1.000000" xlink:href="#m30e32995789d870ad79a2e54c91cf9c6" x="363.857143" y="336.600000"/>
</g></g>
<g id="line2d20">
<g ><use style="fill: none; stroke: #000000; stroke-width: 0.500000; stroke-linejoin: round; stroke-linecap: butt;  opacity: 1.000000" xlink:href="#m9281cae24120827b11d5ea8a7ad3e96b" x="363.857143" y="36.000000"/>
</g></g>
<g id="text6">
<g style="fill: #000000; opacity: 1.000000" transform="translate(347.466518,349.506250)scale(0.120000)">
<use xlink:href="#c_7a2040fe3b94fcd41d0a72c84e93b115"/>
<use xlink:href="#c_ed3e21196fb739f392806f09ca0594ef" x="63.623047"/>
<use xlink:href="#c_7a2040fe3b94fcd41d0a72c84e93b115" x="95.410156"/>
<use xlink:href="#c_7a2040fe3b94fcd41d0a72c84e93b115" x="159.033203"/>
<use xlink:href="#c_7a2040fe3b94fcd41d0a72c84e93b115" x="222.656250"/>
</g>
</g>
</g>
<g id="xtick7">
<g id="line2d21">
<g ><use style="fill: none; stroke: #000000; stroke-width: 0.500000; stroke-linejoin: round; stroke-linecap: butt;  opacity: 1.000000" xlink:href="#m30e32995789d870ad79a2e54c91cf9c6" x="422.228571" y="336.600000"/>
</g></g>
<g id="line2d22">
<g ><use style="fill: none; stroke: #000000; stroke-width: 0.500000; stroke-linejoin: round; stroke-linecap: butt;  opacity: 1.000000" xlink:href="#m9281cae24120827b11d5ea8a7ad3e96b" x="422.228571" y="36.000000"/>
</g></g>
<g id="text7">
<g style="fill: #000000; opacity: 1.000000" transform="translate(405.962946,349.506250)scale(0.120000)">
<use xlink:href="#c_7a2040fe3b94fcd41d0a72c84e93b115"/>
<use xlink:href="#c_ed3e21196fb739f392806f09ca0594ef" x="63.623047"/>
<use xlink:href="#c_7a2040fe3b94fcd41d0a72c84e93b115" x="95.410156"/>
<use xlink:href="#c_7a2040fe3b94fcd41d0a72c84e93b115" x="159.033203"/>
<use xlink:href="#c_1260a2df50f305f3db244e29828f968e" x="222.656250"/>
</g>
</g>
</g>
<g id="text8">
<defs>
<path id="c_5d9b0d099c491f27a9f40b391fa98eef" d="M9.812500 -72.906250l41.890625 0.000000l0.000000 8.312500l-32.031250 0.000000l0.000000 21.484375l28.906250 0.000000l0.000000 8.296875l-28.906250 0.000000l0.000000 34.812500l-9.859375 0.000000z"/>
<path id="c_53989f37671240acb447bc6046631699" d="M50.984375 16.609375l0.000000 6.968750l-51.968750 0.000000l0.000000 -6.968750z"/>
<path id="c_72234ddc5dcad8d05c893ef0371171da" d="M9.812500 -72.906250l14.703125 0.000000l18.593750 49.609375l18.703125 -49.609375l14.703125 0.000000l0.000000 72.906250l-9.625000 0.000000l0.000000 -64.015625l-18.796875 50.000000l-9.906250 0.000000l-18.796875 -50.000000l0.000000 64.015625l-9.578125 0.000000z"/>
<path id="c_f0b2f1db24a99c7a6a1fa56820ca5a8a" d="M8.687500 -72.906250l9.921875 0.000000l0.000000 44.296875q0.000000 11.718750 4.234375 16.875000q4.250000 5.140625 13.781250 5.140625q9.468750 0.000000 13.718750 -5.140625q4.250000 -5.156250 4.250000 -16.875000l0.000000 -44.296875l9.906250 0.000000l0.000000 45.515625q0.000000 14.250000 -7.062500 21.531250q-7.046875 7.281250 -20.812500 7.281250q-13.828125 0.000000 -20.890625 -7.281250q-7.046875 -7.281250 -7.046875 -21.531250z"/>
<path id="c_d41d8cd98f00b204e9800998ecf8427e" d=""/>
<path id="c_7efa9804c2b4c09a4b614b91fdebee3d" d="M31.000000 -75.875000q-6.531250 11.218750 -9.718750 22.218750q-3.171875 10.984375 -3.171875 22.265625q0.000000 11.265625 3.203125 22.328125q3.203125 11.062500 9.687500 22.250000l-7.812500 0.000000q-7.312500 -11.484375 -10.953125 -22.562500q-3.640625 -11.078125 -3.640625 -22.015625q0.000000 -10.890625 3.609375 -21.921875q3.625000 -11.046875 10.984375 -22.562500z"/>
<path id="c_9e4b30cbdf32072672ded72e9074c4c9" d="M-0.296875 -72.906250l61.671875 0.000000l0.000000 8.312500l-25.875000 0.000000l0.000000 64.593750l-9.906250 0.000000l0.000000 -64.593750l-25.890625 0.000000z"/>
<path id="c_dbe439baa035de1a298d0549b22269d8" d="M9.812500 -72.906250l46.093750 0.000000l0.000000 8.312500l-36.234375 0.000000l0.000000 21.578125l34.718750 0.000000l0.000000 8.296875l-34.718750 0.000000l0.000000 26.421875l37.109375 0.000000l0.000000 8.296875l-46.968750 0.000000z"/>
<path id="c_a469f8ee191679fe73f3b765bd271597" d="M64.406250 -67.281250l0.000000 10.390625q-4.984375 -4.640625 -10.625000 -6.921875q-5.640625 -2.296875 -11.984375 -2.296875q-12.500000 0.000000 -19.140625 7.640625q-6.640625 7.640625 -6.640625 22.093750q0.000000 14.406250 6.640625 22.046875q6.640625 7.640625 19.140625 7.640625q6.343750 0.000000 11.984375 -2.296875q5.640625 -2.296875 10.625000 -6.937500l0.000000 10.312500q-5.171875 3.515625 -10.968750 5.281250q-5.781250 1.750000 -12.218750 1.750000q-16.562500 0.000000 -26.093750 -10.125000q-9.515625 -10.140625 -9.515625 -27.671875q0.000000 -17.578125 9.515625 -27.703125q9.531250 -10.140625 26.093750 -10.140625q6.531250 0.000000 12.312500 1.734375q5.796875 1.734375 10.875000 5.203125"/>
<path id="c_680e57528fc97ec49605e10827a40086" d="M39.406250 -66.218750q-10.750000 0.000000 -17.078125 8.015625q-6.312500 8.000000 -6.312500 21.828125q0.000000 13.765625 6.312500 21.781250q6.328125 8.000000 17.078125 8.000000q10.734375 0.000000 17.015625 -8.000000q6.281250 -8.015625 6.281250 -21.781250q0.000000 -13.828125 -6.281250 -21.828125q-6.281250 -8.015625 -17.015625 -8.015625M39.406250 -74.218750q15.328125 0.000000 24.500000 10.281250q9.187500 10.281250 9.187500 27.562500q0.000000 17.234375 -9.187500 27.515625q-9.171875 10.281250 -24.500000 10.281250q-15.375000 0.000000 -24.593750 -10.250000q-9.203125 -10.265625 -9.203125 -27.546875q0.000000 -17.281250 9.203125 -27.562500q9.218750 -10.281250 24.593750 -10.281250"/>
<path id="c_fabc000b0fb83f456ee9f092ad635e20" d="M9.812500 -72.906250l13.281250 0.000000l32.328125 60.984375l0.000000 -60.984375l9.562500 0.000000l0.000000 72.906250l-13.281250 0.000000l-32.312500 -60.984375l0.000000 60.984375l-9.578125 0.000000z"/>
<path id="c_814edda51889e387a3dfbce453bfa1ec" d="M9.812500 -72.906250l9.859375 0.000000l0.000000 72.906250l-9.859375 0.000000z"/>
<path id="c_4c6532c564269b2c70b230c2e45c01e4" d="M44.390625 -34.187500q3.171875 1.078125 6.171875 4.593750q3.000000 3.515625 6.031250 9.671875l10.015625 19.921875l-10.609375 0.000000l-9.312500 -18.703125q-3.625000 -7.328125 -7.015625 -9.718750q-3.390625 -2.390625 -9.250000 -2.390625l-10.750000 0.000000l0.000000 30.812500l-9.859375 0.000000l0.000000 -72.906250l22.265625 0.000000q12.500000 0.000000 18.656250 5.234375q6.156250 5.218750 6.156250 15.765625q0.000000 6.890625 -3.203125 11.437500q-3.203125 4.531250 -9.296875 6.281250M19.671875 -64.796875l0.000000 25.875000l12.406250 0.000000q7.125000 0.000000 10.765625 -3.296875q3.640625 -3.296875 3.640625 -9.687500q0.000000 -6.390625 -3.640625 -9.640625q-3.640625 -3.250000 -10.765625 -3.250000z"/>
<path id="c_3b86f9879deccc43ffac57ae939fe3b7" d="M59.515625 -10.406250l0.000000 -19.578125l-16.109375 0.000000l0.000000 -8.109375l25.875000 0.000000l0.000000 31.312500q-5.703125 4.046875 -12.593750 6.125000q-6.875000 2.078125 -14.687500 2.078125q-17.093750 0.000000 -26.750000 -9.984375q-9.640625 -10.000000 -9.640625 -27.812500q0.000000 -17.875000 9.640625 -27.859375q9.656250 -9.984375 26.750000 -9.984375q7.125000 0.000000 13.546875 1.765625q6.421875 1.750000 11.843750 5.171875l0.000000 10.500000q-5.468750 -4.640625 -11.625000 -6.984375q-6.156250 -2.343750 -12.937500 -2.343750q-13.390625 0.000000 -20.109375 7.468750q-6.703125 7.468750 -6.703125 22.265625q0.000000 14.750000 6.703125 22.218750q6.718750 7.468750 20.109375 7.468750q5.218750 0.000000 9.312500 -0.906250q4.109375 -0.906250 7.375000 -2.812500"/>
<path id="c_e96974be642f6eac0427d72f9cec6c19" d="M8.015625 -75.875000l7.812500 0.000000q7.312500 11.515625 10.953125 22.562500q3.640625 11.031250 3.640625 21.921875q0.000000 10.937500 -3.640625 22.015625q-3.640625 11.078125 -10.953125 22.562500l-7.812500 0.000000q6.484375 -11.187500 9.687500 -22.250000q3.203125 -11.062500 3.203125 -22.328125q0.000000 -11.281250 -3.203125 -22.265625q-3.203125 -11.000000 -9.687500 -22.218750"/>
</defs>
<g style="fill: #000000; opacity: 1.000000" transform="translate(131.878125,368.334375)scale(0.180000)">
<use xlink:href="#c_5d9b0d099c491f27a9f40b391fa98eef"/>
<use xlink:href="#c_53989f37671240acb447bc6046631699" x="57.519531"/>
<use xlink:href="#c_72234ddc5dcad8d05c893ef0371171da" x="107.519531"/>
<use xlink:href="#c_f0b2f1db24a99c7a6a1fa56820ca5a8a" x="193.798828"/>
<use xlink:href="#c_d41d8cd98f00b204e9800998ecf8427e" x="266.992188"/>
<use xlink:href="#c_7efa9804c2b4c09a4b614b91fdebee3d" x="298.779297"/>
<use xlink:href="#c_9e4b30cbdf32072672ded72e9074c4c9" x="337.792969"/>
<use xlink:href="#c_dbe439baa035de1a298d0549b22269d8" x="398.876953"/>
<use xlink:href="#c_a469f8ee191679fe73f3b765bd271597" x="462.060547"/>
<use xlink:href="#c_9e4b30cbdf32072672ded72e9074c4c9" x="531.884766"/>
<use xlink:href="#c_680e57528fc97ec49605e10827a40086" x="592.968750"/>
<use xlink:href="#c_fabc000b0fb83f456ee9f092ad635e20" x="671.679688"/>
<use xlink:href="#c_814edda51889e387a3dfbce453bfa1ec" x="746.484375"/>
<use xlink:href="#c_a469f8ee191679fe73f3b765bd271597" x="775.976562"/>
<use xlink:href="#c_d41d8cd98f00b204e9800998ecf8427e" x="845.800781"/>
<use xlink:href="#c_a469f8ee191679fe73f3b765bd271597" x="877.587891"/>
<use xlink:href="#c_680e57528fc97ec49605e10827a40086" x="947.412109"/>
<use xlink:href="#c_ed3f3ed3ebfbd18bcb9c012009a68ad1" x="1026.123047"/>
<use xlink:href="#c_d41d8cd98f00b204e9800998ecf8427e" x="1089.746094"/>
<use xlink:href="#c_5d9b0d099c491f27a9f40b391fa98eef" x="1121.533203"/>
<use xlink:href="#c_680e57528fc97ec49605e10827a40086" x="1179.052734"/>
<use xlink:href="#c_4c6532c564269b2c70b230c2e45c01e4" x="1257.763672"/>
<use xlink:href="#c_a469f8ee191679fe73f3b765bd271597" x="1322.246094"/>
<use xlink:href="#c_814edda51889e387a3dfbce453bfa1ec" x="1392.070312"/>
<use xlink:href="#c_fabc000b0fb83f456ee9f092ad635e20" x="1421.562500"/>
<use xlink:href="#c_3b86f9879deccc43ffac57ae939fe3b7" x="1496.367188"/>
<use xlink:href="#c_e96974be642f6eac0427d72f9cec6c19" x="1573.857422"/>
</g>
</g>
</g>
<g id="matplotlib.axis2">
<g id="ytick1">
<g id="line2d23">
<defs><path id="m3400efa6b1638b3fea9e19e898273957" d="M0.000000 0.000000L4.000000 0.000000"/></defs>
<g ><use style="fill: none; stroke: #000000; stroke-width: 0.500000; stroke-linejoin: round; stroke-linecap: butt;  opacity: 1.000000" xlink:href="#m3400efa6b1638b3fea9e19e898273957" x="72.000000" y="336.600000"/>
</g></g>
<g id="line2d24">
<defs><path id="m20b58b2501143cb5e0a5e8f1ef6f1643" d="M0.000000 0.000000L-4.000000 0.000000"/></defs>
<g ><use style="fill: none; stroke: #000000; stroke-width: 0.500000; stroke-linejoin: round; stroke-linecap: butt;  opacity: 1.000000" xlink:href="#m20b58b2501143cb5e0a5e8f1ef6f1643" x="480.600000" y="336.600000"/>
</g></g>
<g id="text9">
<g style="fill: #000000; opacity: 1.000000" transform="translate(61.953125,340.967187)scale(0.120000)">
<use xlink:href="#c_7a2040fe3b94fcd41d0a72c84e93b115"/>
</g>
</g>
</g>
<g id="ytick2">
<g id="line2d25">
<g ><use style="fill: none; stroke: #000000; stroke-width: 0.500000; stroke-linejoin: round; stroke-linecap: butt;  opacity: 1.000000" xlink:href="#m3400efa6b1638b3fea9e19e898273957" x="72.000000" y="276.480000"/>
</g></g>
<g id="line2d26">
<g ><use style="fill: none; stroke: #000000; stroke-width: 0.500000; stroke-linejoin: round; stroke-linecap: butt;  opacity: 1.000000" xlink:href="#m20b58b2501143cb5e0a5e8f1ef6f1643" x="480.600000" y="276.480000"/>
</g></g>
<g id="text10">
<g style="fill: #000000; opacity: 1.000000" transform="translate(54.390625,280.847187)scale(0.120000)">
<use xlink:href="#c_ed3f3ed3ebfbd18bcb9c012009a68ad1"/>
<use xlink:href="#c_7a2040fe3b94fcd41d0a72c84e93b115" x="63.623047"/>
</g>
</g>
</g>
<g id="ytick3">
<g id="line2d27">
<g ><use style="fill: none; stroke: #000000; stroke-width: 0.500000; stroke-linejoin: round; stroke-linecap: butt;  opacity: 1.000000" xlink:href="#m3400efa6b1638b3fea9e19e898273957" x="72.000000" y="216.360000"/>
</g></g>
<g id="line2d28">
<g ><use style="fill: none; stroke: #000000; stroke-width: 0.500000; stroke-linejoin: round; stroke-linecap: butt;  opacity: 1.000000" xlink:href="#m20b58b2501143cb5e0a5e8f1ef6f1643" x="480.600000" y="216.360000"/>
</g></g>
<g id="text11">
<defs>
<path id="c_a0416418d96557a09b8c1332d34883ba" d="M37.796875 -64.312500l-24.906250 38.921875l24.906250 0.000000zM35.203125 -72.906250l12.406250 0.000000l0.000000 47.515625l10.406250 0.000000l0.000000 8.203125l-10.406250 0.000000l0.000000 17.187500l-9.812500 0.000000l0.000000 -17.187500l-32.906250 0.000000l0.000000 -9.515625z"/>
</defs>
<g style="fill: #000000; opacity: 1.000000" transform="translate(54.109375,220.727187)scale(0.120000)">
<use xlink:href="#c_a0416418d96557a09b8c1332d34883ba"/>
<use xlink:href="#c_7a2040fe3b94fcd41d0a72c84e93b115" x="63.623047"/>
</g>
</g>
</g>
<g id="ytick4">
<g id="line2d29">
<g ><use style="fill: none; stroke: #000000; stroke-width: 0.500000; stroke-linejoin: round; stroke-linecap: butt;  opacity: 1.000000" xlink:href="#m3400efa6b1638b3fea9e19e898273957" x="72.000000" y="156.240000"/>
</g></g>
<g id="line2d30">
<g ><use style="fill: none; stroke: #000000; stroke-width: 0.500000; stroke-linejoin: round; stroke-linecap: butt;  opacity: 1.000000" xlink:href="#m20b58b2501143cb5e0a5e8f1ef6f1643" x="480.600000" y="156.240000"/>
</g></g>
<g id="text12">
<defs>
<path id="c_cc8d6d580d1b10c8632f7a42cd53db8a" d="M33.015625 -40.375000q-6.640625 0.000000 -10.531250 4.546875q-3.875000 4.531250 -3.875000 12.437500q0.000000 7.859375 3.875000 12.437500q3.890625 4.562500 10.531250 4.562500q6.640625 0.000000 10.515625 -4.562500q3.875000 -4.578125 3.875000 -12.437500q0.000000 -7.906250 -3.875000 -12.437500q-3.875000 -4.546875 -10.515625 -4.546875M52.593750 -71.296875l0.000000 8.984375q-3.718750 -1.750000 -7.500000 -2.671875q-3.781250 -0.937500 -7.500000 -0.937500q-9.765625 0.000000 -14.921875 6.593750q-5.140625 6.593750 -5.875000 19.921875q2.875000 -4.250000 7.218750 -6.515625q4.359375 -2.265625 9.578125 -2.265625q10.984375 0.000000 17.359375 6.671875q6.375000 6.656250 6.375000 18.125000q0.000000 11.234375 -6.640625 18.031250q-6.640625 6.781250 -17.671875 6.781250q-12.656250 0.000000 -19.343750 -9.687500q-6.687500 -9.703125 -6.687500 -28.109375q0.000000 -17.281250 8.203125 -27.562500q8.203125 -10.281250 22.015625 -10.281250q3.718750 0.000000 7.500000 0.734375q3.781250 0.734375 7.890625 2.187500"/>
</defs>
<g style="fill: #000000; opacity: 1.000000" transform="translate(54.359375,160.607187)scale(0.120000)">
<use xlink:href="#c_cc8d6d580d1b10c8632f7a42cd53db8a"/>
<use xlink:href="#c_7a2040fe3b94fcd41d0a72c84e93b115" x="63.623047"/>
</g>
</g>
</g>
<g id="ytick5">
<g id="line2d31">
<g ><use style="fill: none; stroke: #000000; stroke-width: 0.500000; stroke-linejoin: round; stroke-linecap: butt;  opacity: 1.000000" xlink:href="#m3400efa6b1638b3fea9e19e898273957" x="72.000000" y="96.120000"/>
</g></g>
<g id="line2d32">
<g ><use style="fill: none; stroke: #000000; stroke-width: 0.500000; stroke-linejoin: round; stroke-linecap: butt;  opacity: 1.000000" xlink:href="#m20b58b2501143cb5e0a5e8f1ef6f1643" x="480.600000" y="96.120000"/>
</g></g>
<g id="text13">
<defs>
<path id="c_bef35738d52871942e50b9de9b122bab" d="M31.781250 -34.625000q-7.031250 0.000000 -11.062500 3.765625q-4.015625 3.765625 -4.015625 10.343750q0.000000 6.593750 4.015625 10.359375q4.031250 3.765625 11.062500 3.765625q7.031250 0.000000 11.078125 -3.781250q4.062500 -3.796875 4.062500 -10.343750q0.000000 -6.578125 -4.031250 -10.343750q-4.015625 -3.765625 -11.109375 -3.765625M21.921875 -38.812500q-6.343750 -1.562500 -9.890625 -5.906250q-3.531250 -4.359375 -3.531250 -10.609375q0.000000 -8.734375 6.218750 -13.812500q6.234375 -5.078125 17.062500 -5.078125q10.890625 0.000000 17.093750 5.078125q6.203125 5.078125 6.203125 13.812500q0.000000 6.250000 -3.546875 10.609375q-3.531250 4.343750 -9.828125 5.906250q7.125000 1.656250 11.093750 6.500000q3.984375 4.828125 3.984375 11.796875q0.000000 10.609375 -6.468750 16.281250q-6.468750 5.656250 -18.531250 5.656250q-12.046875 0.000000 -18.531250 -5.656250q-6.468750 -5.671875 -6.468750 -16.281250q0.000000 -6.968750 4.000000 -11.796875q4.015625 -4.843750 11.140625 -6.500000M18.312500 -54.390625q0.000000 5.656250 3.531250 8.828125q3.546875 3.171875 9.937500 3.171875q6.359375 0.000000 9.937500 -3.171875q3.593750 -3.171875 3.593750 -8.828125q0.000000 -5.671875 -3.593750 -8.843750q-3.578125 -3.171875 -9.937500 -3.171875q-6.390625 0.000000 -9.937500 3.171875q-3.531250 3.171875 -3.531250 8.843750"/>
</defs>
<g style="fill: #000000; opacity: 1.000000" transform="translate(54.328125,100.487188)scale(0.120000)">
<use xlink:href="#c_bef35738d52871942e50b9de9b122bab"/>
<use xlink:href="#c_7a2040fe3b94fcd41d0a72c84e93b115" x="63.623047"/>
</g>
</g>
</g>
<g id="ytick6">
<g id="line2d33">
<g ><use style="fill: none; stroke: #000000; stroke-width: 0.500000; stroke-linejoin: round; stroke-linecap: butt;  opacity: 1.000000" xlink:href="#m3400efa6b1638b3fea9e19e898273957" x="72.000000" y="36.000000"/>
</g></g>
<g id="line2d34">
<g ><use style="fill: none; stroke: #000000; stroke-width: 0.500000; stroke-linejoin: round; stroke-linecap: butt;  opacity: 1.000000" xlink:href="#m20b58b2501143cb5e0a5e8f1ef6f1643" x="480.600000" y="36.000000"/>
</g></g>
<g id="text14">
<g style="fill: #000000; opacity: 1.000000" transform="translate(47.187500,40.367188)scale(0.120000)">
<use xlink:href="#c_42baa63129a918535c52adb20d687ea7"/>
<use xlink:href="#c_7a2040fe3b94fcd41d0a72c84e93b115" x="63.623047"/>
<use xlink:href="#c_7a2040fe3b94fcd41d0a72c84e93b115" x="127.246094"/>
</g>
</g>
</g>
<g id="text15">
<defs>
<path id="c_0f8c41144cfbf448378cb6fd1cc8e549" d="M18.312500 -70.218750l0.000000 15.531250l18.500000 0.000000l0.000000 6.984375l-18.500000 0.000000l0.000000 29.687500q0.000000 6.687500 1.828125 8.593750q1.828125 1.906250 7.453125 1.906250l9.218750 0.000000l0.000000 7.515625l-9.218750 0.000000q-10.406250 0.000000 -14.359375 -3.875000q-3.953125 -3.890625 -3.953125 -14.140625l0.000000 -29.687500l-6.593750 0.000000l0.000000 -6.984375l6.593750 0.000000l0.000000 -15.531250z"/>
<path id="c_2980d33c6bfe3d2427dc2327ab0525d7" d="M46.687500 -72.906250l26.500000 27.203125l-9.812500 0.000000l-21.484375 -19.281250l-21.484375 19.281250l-9.812500 0.000000l26.515625 -27.203125z"/>
<path id="c_dcb78ab3124be785176d70a27dde1356" d="M9.078125 -75.984375l9.031250 0.000000l0.000000 44.875000l26.812500 -23.578125l11.468750 0.000000l-29.000000 25.578125l30.234375 29.109375l-11.718750 0.000000l-27.796875 -26.703125l0.000000 26.703125l-9.031250 0.000000z"/>
<path id="c_e3864de5dabf2f8dd9eee74726882ec1" d="M45.406250 -27.984375q0.000000 -9.765625 -4.031250 -15.125000q-4.015625 -5.375000 -11.296875 -5.375000q-7.218750 0.000000 -11.250000 5.375000q-4.031250 5.359375 -4.031250 15.125000q0.000000 9.718750 4.031250 15.093750q4.031250 5.375000 11.250000 5.375000q7.281250 0.000000 11.296875 -5.375000q4.031250 -5.375000 4.031250 -15.093750M54.390625 -6.781250q0.000000 13.953125 -6.203125 20.765625q-6.187500 6.812500 -18.984375 6.812500q-4.734375 0.000000 -8.937500 -0.703125q-4.203125 -0.703125 -8.156250 -2.171875l0.000000 -8.734375q3.953125 2.140625 7.812500 3.156250q3.859375 1.031250 7.859375 1.031250q8.843750 0.000000 13.234375 -4.609375q4.390625 -4.609375 4.390625 -13.937500l0.000000 -4.453125q-2.781250 4.843750 -7.125000 7.234375q-4.343750 2.390625 -10.406250 2.390625q-10.046875 0.000000 -16.203125 -7.656250q-6.156250 -7.671875 -6.156250 -20.328125q0.000000 -12.687500 6.156250 -20.343750q6.156250 -7.671875 16.203125 -7.671875q6.062500 0.000000 10.406250 2.390625q4.343750 2.390625 7.125000 7.218750l0.000000 -8.296875l8.984375 0.000000z"/>
</defs>
<g style="fill: #000000; opacity: 1.000000" transform="translate(42.187500,249.112500)rotate(-90.0)scale(0.180000)">
<use xlink:href="#c_814edda51889e387a3dfbce453bfa1ec"/>
<use xlink:href="#c_7efa9804c2b4c09a4b614b91fdebee3d" x="29.492188"/>
<use xlink:href="#c_0f8c41144cfbf448378cb6fd1cc8e549" x="68.505859"/>
<use xlink:href="#c_e96974be642f6eac0427d72f9cec6c19" x="107.714844"/>
<use xlink:href="#c_d41d8cd98f00b204e9800998ecf8427e" x="146.728516"/>
<use xlink:href="#c_7efa9804c2b4c09a4b614b91fdebee3d" x="178.515625"/>
<use xlink:href="#c_42baa63129a918535c52adb20d687ea7" x="217.529297"/>
<use xlink:href="#c_7a2040fe3b94fcd41d0a72c84e93b115" x="281.152344"/>
<use xlink:href="#c_2980d33c6bfe3d2427dc2327ab0525d7" x="344.775391"/>
<use xlink:href="#c_42baa63129a918535c52adb20d687ea7" x="428.564453"/>
<use xlink:href="#c_1260a2df50f305f3db244e29828f968e" x="492.187500"/>
<use xlink:href="#c_d41d8cd98f00b204e9800998ecf8427e" x="555.810547"/>
<use xlink:href="#c_dcb78ab3124be785176d70a27dde1356" x="587.597656"/>
<use xlink:href="#c_e3864de5dabf2f8dd9eee74726882ec1" x="645.507812"/>
<use xlink:href="#c_e96974be642f6eac0427d72f9cec6c19" x="708.984375"/>
</g>
</g>
</g>
<g id="patch3">
<path style="fill: none; stroke: #000000; stroke-width: 1.000000; stroke-linejoin: round; stroke-linecap: square;  opacity: 1.000000"  d="M72.000000 36.000000L480.600000 36.000000"/>
</g>
<g id="patch4">
<path style="fill: none; stroke: #000000; stroke-width: 1.000000; stroke-linejoin: round; stroke-linecap: square;  opacity: 1.000000"  d="M480.600000 336.600000L480.600000 36.000000"/>
</g>
<g id="patch5">
<path style="fill: none; stroke: #000000; stroke-width: 1.000000; stroke-linejoin: round; stroke-linecap: square;  opacity: 1.000000"  d="M72.000000 336.600000L480.600000 336.600000"/>
</g>
<g id="patch6">
<path style="fill: none; stroke: #000000; stroke-width: 1.000000; stroke-linejoin: round; stroke-linecap: square;  opacity: 1.000000"  d="M72.000000 336.600000L72.000000 36.000000"/>
</g>
<g id="text16">
<defs>
<path id="c_5e9f44da4350eed47d2641510279ca20" d="M9.812500 -72.906250l9.859375 0.000000l0.000000 29.890625l35.843750 0.000000l0.000000 -29.890625l9.859375 0.000000l0.000000 72.906250l-9.859375 0.000000l0.000000 -34.718750l-35.843750 0.000000l0.000000 34.718750l-9.859375 0.000000z"/>
</defs>
<g clip-path="url(#p85afda3df449e9901343cd6a43678f50)">
<g style="fill: #ff0000; opacity: 1.000000" transform="translate(362.673217,210.724621)scale(0.120000)">
<use xlink:href="#c_5e9f44da4350eed47d2641510279ca20"/>
</g>
</g>
</g>
<g id="text17">
<g clip-path="url(#p85afda3df449e9901343cd6a43678f50)">
<g style="fill: #ff0000; opacity: 1.000000" transform="translate(201.549731,129.366855)scale(0.120000)">
<use xlink:href="#c_5e9f44da4350eed47d2641510279ca20"/>
</g>
</g>
</g>
<g id="text18">
<g clip-path="url(#p85afda3df449e9901343cd6a43678f50)">
<g style="fill: #ff0000; opacity: 1.000000" transform="translate(13.628571,101.990252)scale(0.120000)">
<use xlink:href="#c_d41d8cd98f00b204e9800998ecf8427e"/>
</g>
</g>
</g>
<g id="text19">
<defs>
<path id="c_07e3f33241aff50afcba519606f2a979" d="M9.812500 -72.906250l9.859375 0.000000l0.000000 64.609375l35.500000 0.000000l0.000000 8.296875l-45.359375 0.000000z"/>
</defs>
<g clip-path="url(#p85afda3df449e9901343cd6a43678f50)">
<g style="fill: #ff0000; opacity: 1.000000" transform="translate(363.496631,234.787252)scale(0.120000)">
<use xlink:href="#c_07e3f33241aff50afcba519606f2a979"/>
</g>
</g>
</g>
<g id="text20">
<g clip-path="url(#p85afda3df449e9901343cd6a43678f50)">
<g style="fill: #ff0000; opacity: 1.000000" transform="translate(363.496631,234.787648)scale(0.120000)">
<use xlink:href="#c_07e3f33241aff50afcba519606f2a979"/>
</g>
</g>
</g>
<g id="text21">
<g clip-path="url(#p85afda3df449e9901343cd6a43678f50)">
<g style="fill: #ff0000; opacity: 1.000000" transform="translate(366.009164,206.448150)scale(0.120000)">
<use xlink:href="#c_d41d8cd98f00b204e9800998ecf8427e"/>
</g>
</g>
</g>
<g id="text22">
<g clip-path="url(#p85afda3df449e9901343cd6a43678f50)">
<g style="fill: #ff0000; opacity: 1.000000" transform="translate(202.159101,129.375590)scale(0.120000)">
<use xlink:href="#c_07e3f33241aff50afcba519606f2a979"/>
</g>
</g>
</g>
<g id="text23">
<defs>
<path id="c_b672e4bee30772019085dff1098f516d" d="M53.515625 -70.515625l0.000000 9.625000q-5.609375 -2.687500 -10.593750 -4.000000q-4.984375 -1.328125 -9.625000 -1.328125q-8.046875 0.000000 -12.421875 3.125000q-4.375000 3.125000 -4.375000 8.890625q0.000000 4.843750 2.906250 7.312500q2.906250 2.453125 11.015625 3.968750l5.953125 1.218750q11.031250 2.109375 16.281250 7.406250q5.250000 5.296875 5.250000 14.171875q0.000000 10.609375 -7.109375 16.078125q-7.093750 5.468750 -20.812500 5.468750q-5.171875 0.000000 -11.015625 -1.171875q-5.828125 -1.171875 -12.078125 -3.468750l0.000000 -10.156250q6.000000 3.359375 11.765625 5.078125q5.765625 1.703125 11.328125 1.703125q8.437500 0.000000 13.031250 -3.312500q4.593750 -3.328125 4.593750 -9.484375q0.000000 -5.359375 -3.296875 -8.390625q-3.296875 -3.031250 -10.812500 -4.546875l-6.015625 -1.171875q-11.031250 -2.187500 -15.968750 -6.875000q-4.921875 -4.687500 -4.921875 -13.046875q0.000000 -9.671875 6.812500 -15.234375q6.812500 -5.562500 18.765625 -5.562500q5.140625 0.000000 10.453125 0.937500q5.328125 0.921875 10.890625 2.765625"/>
<path id="c_cd96f817f3cab988d24a2b49a5577fe6" d="M10.984375 -1.515625l0.000000 -8.984375q3.718750 1.765625 7.515625 2.687500q3.812500 0.921875 7.484375 0.921875q9.765625 0.000000 14.906250 -6.562500q5.156250 -6.562500 5.890625 -19.953125q-2.828125 4.203125 -7.187500 6.453125q-4.343750 2.250000 -9.609375 2.250000q-10.937500 0.000000 -17.312500 -6.609375q-6.375000 -6.625000 -6.375000 -18.109375q0.000000 -11.218750 6.640625 -18.000000q6.640625 -6.796875 17.671875 -6.796875q12.656250 0.000000 19.312500 9.703125q6.671875 9.687500 6.671875 28.140625q0.000000 17.234375 -8.187500 27.515625q-8.171875 10.281250 -21.984375 10.281250q-3.718750 0.000000 -7.531250 -0.734375q-3.796875 -0.734375 -7.906250 -2.203125M30.609375 -32.421875q6.640625 0.000000 10.515625 -4.531250q3.890625 -4.546875 3.890625 -12.468750q0.000000 -7.859375 -3.890625 -12.421875q-3.875000 -4.562500 -10.515625 -4.562500q-6.640625 0.000000 -10.515625 4.562500q-3.875000 4.562500 -3.875000 12.421875q0.000000 7.921875 3.875000 12.468750q3.875000 4.531250 10.515625 4.531250"/>
</defs>
<g style="fill: #000000; opacity: 1.000000" transform="translate(247.284375,30.687500)scale(0.220000)">
<use xlink:href="#c_b672e4bee30772019085dff1098f516d"/>
<use xlink:href="#c_72234ddc5dcad8d05c893ef0371171da" x="63.476562"/>
<use xlink:href="#c_cd96f817f3cab988d24a2b49a5577fe6" x="149.755859"/>
<use xlink:href="#c_7a2040fe3b94fcd41d0a72c84e93b115" x="213.378906"/>
</g>
</g>
</g>
</g>
</svg>
