<?xml version="1.0" standalone="no"?>
<!DOCTYPE svg PUBLIC "-//W3C//DTD SVG 1.1//EN"
  "http://www.w3.org/Graphics/SVG/1.1/DTD/svg11.dtd">
<!-- Created with matplotlib (http://matplotlib.sourceforge.net/) -->
<svg width="516pt" height="372pt" viewBox="0 0 516 372"
   xmlns="http://www.w3.org/2000/svg"
   xmlns:xlink="http://www.w3.org/1999/xlink"
   version="1.1"
   id="svg1">
<g id="figure1">
<g id="patch1">
<path style="fill: #ffffff; stroke: #ffffff; stroke-width: 1.000000; stroke-linejoin: round; stroke-linecap: square;  opacity: 1.000000"  d="M0.000000 372.600000L516.600000 372.600000L516.600000 0.000000
L0.000000 0.000000L0.000000 372.600000"/>
</g>
<g id="axes1">
<g id="patch2">
<path style="fill: #ffffff; opacity: 1.000000"  d="M72.000000 336.600000L480.600000 336.600000L480.600000 36.000000
L72.000000 36.000000L72.000000 336.600000"/>
</g>
<g id="line2d1">
<defs>
  <clipPath id="p85afda3df449e9901343cd6a43678f50">
<rect x="72.000000" y="36.000000" width="408.600000" height="300.600000"/>
  </clipPath>
</defs><path style="fill: none; stroke: #000000; stroke-width: 2.000000; stroke-linejoin: round; stroke-linecap: square;  opacity: 1.000000" clip-path="url(#p85afda3df449e9901343cd6a43678f50)" d="M439.740000 323.999846L437.813402 319.821025L431.014882 305.091492
L424.201440 290.362881L417.366580 275.635596L410.499395 260.910321
L403.767174 246.584306L399.235022 237.036408L394.645651 227.492163
L391.537110 221.132506L389.432778 216.894840L387.293074 212.659541
L385.104987 208.427548L383.609836 205.608769L382.075636 202.792796
L381.025153 200.917525L379.946798 199.044369L378.833931 197.173913
L378.068582 195.928837L377.280637 194.685646L376.465901 193.444766
L375.619112 192.206756L375.033555 191.383378L374.428405 190.561894
L373.800792 189.742667L373.147294 188.926149L372.463816 188.112918
L371.989120 187.572953L371.497236 187.035047L370.986240 186.499528
L370.453957 185.966788L369.897925 185.437299L369.315374 184.911635
L368.910757 184.563658L368.491977 184.217928L368.057957 183.874720
L367.607559 183.534343L367.139584 183.197150L366.652782 182.863539
L366.145872 182.533955L365.617559 182.208894L365.066566 181.888905
L364.491672 181.574586L363.891756 181.266581L363.265845 180.965568
L362.613174 180.672249L361.933237 180.387329L361.225836 180.111490
L360.491113 179.845367"/>
</g>
<g id="line2d2">
<path style="fill: none; stroke: #000000; stroke-width: 2.000000; stroke-linejoin: round; stroke-linecap: butt; stroke-dasharray: 6.000000,6.000000; stroke-dashoffset: 0.000000; opacity: 1.000000" clip-path="url(#p85afda3df449e9901343cd6a43678f50)" d="M360.491113 179.845367L359.986367 179.673636L359.552361 179.532708
L359.026313 179.369745L358.669436 179.263827L358.428839 179.194439
L358.345011 179.170634L358.020000 179.080105L357.359227 178.904336
L356.854643 178.777146L356.342747 178.653922L355.823916 178.534639
L355.298530 178.419253L354.766972 178.307709L354.229620 178.199940
L353.686849 178.095864L353.139018 177.995393L352.586477 177.898430
L352.029560 177.804873L351.468586 177.714615L350.903855 177.627543
L350.335649 177.543547L349.764235 177.462513L348.901626 177.346265
L348.033114 177.236048L347.159379 177.131494L346.281025 177.032247
L345.398585 176.937968L344.512531 176.848336L343.623274 176.763046
L342.731180 176.681813L341.836567 176.604372L340.939715 176.530472
L339.590763 176.425759L338.238030 176.327784L336.882099 176.235906
L335.523452 176.149556L334.162491 176.068222L332.799548 175.991452
L330.752010 175.883972L328.701389 175.784656L326.648273 175.692485
L324.593121 175.606595L322.536293 175.526241L319.448518 175.414720
L316.358351 175.312438L313.266332 175.217933L310.172861 175.130004
L305.530570 175.008312L300.886418 174.896511L296.240916 174.792478
L289.270897 174.647352L282.299498 174.511368L271.841070 174.316717
L256.153313 174.025572L232.632579 173.516377L209.176148 172.702124
L186.328844 170.596743L179.259369 168.879579"/>
</g>
<g id="line2d3">
<path style="fill: none; stroke: #000000; stroke-width: 2.000000; stroke-linejoin: round; stroke-linecap: square;  opacity: 1.000000" clip-path="url(#p85afda3df449e9901343cd6a43678f50)" d="M179.259369 168.879579L172.208724 165.429126L167.684728 161.452410
L164.321770 157.324684L161.499911 153.143129L158.963419 148.937209
L156.593865 144.718296L154.329899 140.491640L152.136793 136.259994
L149.993482 132.024940L146.843637 125.667999L142.214955 116.126292
L137.658419 106.579945L130.903943 92.255331L124.023177 77.530903
L117.179656 62.804156L112.860000 53.479618"/>
</g>
<g id="line2d4">
<path style="fill: none; stroke: #ff0000; stroke-width: 2.000000; stroke-linejoin: round; stroke-linecap: butt; stroke-dasharray: 6.000000,6.000000; stroke-dashoffset: 0.000000; opacity: 1.000000" clip-path="url(#p85afda3df449e9901343cd6a43678f50)" d="M359.986367 179.673636L360.005184 178.783341L360.061919 178.066739
L360.145174 177.517916L360.244236 177.107529L360.350746 176.798438
L360.458865 176.567354L360.564726 176.393679L360.665867 176.264838
L360.760818 176.167528L360.848801 176.088198L360.929526 176.026695
L361.003031 175.979509L361.069578 175.944084L361.129566 175.917143
L361.183473 175.893416L361.231810 175.876556L361.275093 175.863755
L361.313823 175.848275L361.348468 175.839173L361.379465 175.832232
L361.407208 175.822035L361.443492 175.813997L361.474292 175.808694
L361.500476 175.799465L361.522760 175.795384L361.541728 175.792942
L361.557854 175.784896L361.571512 175.782099L361.582994 175.780459
L361.592512 175.776599L361.600200 175.776004L361.606108 175.776364
L361.610188 175.760470L361.612257 175.757260L361.612448 175.756111"/>
</g>
<g id="line2d5">
<path style="fill: none; stroke: #ff0000; stroke-width: 2.000000; stroke-linejoin: round; stroke-linecap: square;  opacity: 1.000000" clip-path="url(#p85afda3df449e9901343cd6a43678f50)" d="M361.612448 175.756111L361.609152 175.737453L361.596768 175.722522
L361.568478 175.690738L361.509812 175.626139L361.391163 175.490165
L361.157289 175.259921L360.721856 174.812697L359.991079 174.077242
L358.905572 173.003347L358.020390 172.132463L355.497013 169.714479
L352.334604 166.785471L348.953934 163.742579L345.462670 160.703690
L341.956734 157.737195L338.443767 154.850673L334.943291 152.037646
L331.450542 149.284712L327.970770 146.616404L324.509332 143.993194
L321.055243 141.419096L317.616528 138.914338L314.155512 136.426970
L310.757836 134.026674L307.343766 131.648819L303.943857 129.307653
L300.527593 126.990795L297.149840 124.754320L293.765377 122.518127
L290.369364 120.328632L286.984017 118.172247L283.632501 116.059823
L280.261206 113.975799L276.894606 111.928865L273.523196 109.894750
L270.159141 107.914024L266.787708 105.953744L263.419707 104.034451
L260.063423 102.168337L256.684352 100.293090L253.307782 98.472594
L249.934674 96.693269L246.560006 94.940316L243.176044 93.236579
L239.778603 91.587365L236.394885 89.923716L232.995605 88.405438
L229.575328 86.789397L226.168087 85.366881L222.746865 83.865195
L219.307598 82.460210L215.860797 81.139972L212.402493 79.889774
L208.939195 78.724176L205.459475 77.592862L201.968222 76.682778
L198.471356 75.807897L194.984370 75.115992L191.521392 74.646278
L188.129948 74.487106L184.904745 74.811662L182.040516 75.893318
L179.834629 77.943960L179.088327 79.403367L178.559140 81.075456
L178.197389 83.036050L177.965337 85.242785L177.823114 87.640529
L177.738195 90.179979L177.688103 92.819320L177.658833 95.532739
L177.642180 98.294683L177.633437 101.081232L177.629922 103.892018
L177.629613 105.100984"/>
</g>
<g id="line2d6">
<path style="fill: none; stroke: #ff0000; stroke-width: 2.000000; stroke-linejoin: round; stroke-linecap: butt; stroke-dasharray: 6.000000,6.000000; stroke-dashoffset: 0.000000; opacity: 1.000000" clip-path="url(#p85afda3df449e9901343cd6a43678f50)" d="M177.629613 105.100984L177.632882 109.330287L177.641750 113.573730
L177.655731 117.811286L177.675189 121.966525L177.701151 126.154850
L177.735308 130.278252L177.780152 134.382856L177.839201 138.472994
L177.917289 142.474023L178.020792 146.448086L178.157498 150.367619
L178.335431 154.217354L178.559399 157.986200L178.822967 161.662226
L179.090200 165.210733L179.194506 166.868137L179.251499 168.353834
L179.256831 168.878631L179.224994 167.507450L179.223351 167.468456"/>
</g>
<g id="matplotlib.axis1">
<g id="xtick1">
<g id="line2d7">
<defs><path id="m30e32995789d870ad79a2e54c91cf9c6" d="M0.000000 0.000000L0.000000 -4.000000"/></defs>
<g ><use style="fill: none; stroke: #000000; stroke-width: 0.500000; stroke-linejoin: round; stroke-linecap: butt;  opacity: 1.000000" xlink:href="#m30e32995789d870ad79a2e54c91cf9c6" x="72.000000" y="336.600000"/>
</g></g>
<g id="line2d8">
<defs><path id="m9281cae24120827b11d5ea8a7ad3e96b" d="M0.000000 0.000000L0.000000 4.000000"/></defs>
<g ><use style="fill: none; stroke: #000000; stroke-width: 0.500000; stroke-linejoin: round; stroke-linecap: butt;  opacity: 1.000000" xlink:href="#m9281cae24120827b11d5ea8a7ad3e96b" x="72.000000" y="36.000000"/>
</g></g>
<g id="text1">
<defs>
<path id="c_6a8d56c819c37117ab4cf023bec22a5a" d="M10.593750 -35.500000l62.593750 0.000000l0.000000 8.296875l-62.593750 0.000000z"/>
<path id="c_7a2040fe3b94fcd41d0a72c84e93b115" d="M31.781250 -66.406250q-7.609375 0.000000 -11.453125 7.500000q-3.828125 7.484375 -3.828125 22.531250q0.000000 14.984375 3.828125 22.484375q3.843750 7.500000 11.453125 7.500000q7.671875 0.000000 11.500000 -7.500000q3.843750 -7.500000 3.843750 -22.484375q0.000000 -15.046875 -3.843750 -22.531250q-3.828125 -7.500000 -11.500000 -7.500000M31.781250 -74.218750q12.265625 0.000000 18.734375 9.703125q6.468750 9.687500 6.468750 28.140625q0.000000 18.406250 -6.468750 28.109375q-6.468750 9.687500 -18.734375 9.687500q-12.250000 0.000000 -18.718750 -9.687500q-6.468750 -9.703125 -6.468750 -28.109375q0.000000 -18.453125 6.468750 -28.140625q6.468750 -9.703125 18.718750 -9.703125"/>
<path id="c_ed3e21196fb739f392806f09ca0594ef" d="M10.687500 -12.406250l10.312500 0.000000l0.000000 12.406250l-10.312500 0.000000z"/>
<path id="c_3dcfa38a02242cb63ec6726c6e70be7a" d="M40.578125 -39.312500q7.078125 1.515625 11.046875 6.312500q3.984375 4.781250 3.984375 11.812500q0.000000 10.781250 -7.421875 16.703125q-7.421875 5.906250 -21.093750 5.906250q-4.578125 0.000000 -9.437500 -0.906250q-4.859375 -0.906250 -10.031250 -2.718750l0.000000 -9.515625q4.093750 2.390625 8.968750 3.609375q4.890625 1.218750 10.218750 1.218750q9.265625 0.000000 14.125000 -3.656250q4.859375 -3.656250 4.859375 -10.640625q0.000000 -6.453125 -4.515625 -10.078125q-4.515625 -3.640625 -12.562500 -3.640625l-8.500000 0.000000l0.000000 -8.109375l8.890625 0.000000q7.265625 0.000000 11.125000 -2.906250q3.859375 -2.906250 3.859375 -8.375000q0.000000 -5.609375 -3.984375 -8.609375q-3.968750 -3.015625 -11.390625 -3.015625q-4.062500 0.000000 -8.703125 0.890625q-4.640625 0.875000 -10.203125 2.718750l0.000000 -8.781250q5.625000 -1.562500 10.531250 -2.343750q4.906250 -0.781250 9.250000 -0.781250q11.234375 0.000000 17.765625 5.109375q6.546875 5.093750 6.546875 13.781250q0.000000 6.062500 -3.468750 10.234375q-3.468750 4.171875 -9.859375 5.781250"/>
</defs>
<g style="fill: #000000; opacity: 1.000000" transform="translate(58.539063,349.506250)scale(0.120000)">
<use xlink:href="#c_6a8d56c819c37117ab4cf023bec22a5a"/>
<use xlink:href="#c_7a2040fe3b94fcd41d0a72c84e93b115" x="83.789062"/>
<use xlink:href="#c_ed3e21196fb739f392806f09ca0594ef" x="147.412109"/>
<use xlink:href="#c_3dcfa38a02242cb63ec6726c6e70be7a" x="179.199219"/>
</g>
</g>
</g>
<g id="xtick2">
<g id="line2d9">
<g ><use style="fill: none; stroke: #000000; stroke-width: 0.500000; stroke-linejoin: round; stroke-linecap: butt;  opacity: 1.000000" xlink:href="#m30e32995789d870ad79a2e54c91cf9c6" x="112.860000" y="336.600000"/>
</g></g>
<g id="line2d10">
<g ><use style="fill: none; stroke: #000000; stroke-width: 0.500000; stroke-linejoin: round; stroke-linecap: butt;  opacity: 1.000000" xlink:href="#m9281cae24120827b11d5ea8a7ad3e96b" x="112.860000" y="36.000000"/>
</g></g>
<g id="text2">
<defs>
<path id="c_ed3f3ed3ebfbd18bcb9c012009a68ad1" d="M19.187500 -8.296875l34.421875 0.000000l0.000000 8.296875l-46.281250 0.000000l0.000000 -8.296875q5.609375 -5.812500 15.296875 -15.593750q9.703125 -9.796875 12.187500 -12.640625q4.734375 -5.312500 6.609375 -9.000000q1.890625 -3.687500 1.890625 -7.250000q0.000000 -5.812500 -4.078125 -9.468750q-4.078125 -3.671875 -10.625000 -3.671875q-4.640625 0.000000 -9.796875 1.609375q-5.140625 1.609375 -11.000000 4.890625l0.000000 -9.968750q5.953125 -2.390625 11.125000 -3.609375q5.187500 -1.218750 9.484375 -1.218750q11.328125 0.000000 18.062500 5.671875q6.734375 5.656250 6.734375 15.125000q0.000000 4.500000 -1.687500 8.531250q-1.671875 4.015625 -6.125000 9.484375q-1.218750 1.421875 -7.765625 8.187500q-6.531250 6.765625 -18.453125 18.921875"/>
</defs>
<g style="fill: #000000; opacity: 1.000000" transform="translate(99.516250,349.506250)scale(0.120000)">
<use xlink:href="#c_6a8d56c819c37117ab4cf023bec22a5a"/>
<use xlink:href="#c_7a2040fe3b94fcd41d0a72c84e93b115" x="83.789062"/>
<use xlink:href="#c_ed3e21196fb739f392806f09ca0594ef" x="147.412109"/>
<use xlink:href="#c_ed3f3ed3ebfbd18bcb9c012009a68ad1" x="179.199219"/>
</g>
</g>
</g>
<g id="xtick3">
<g id="line2d11">
<g ><use style="fill: none; stroke: #000000; stroke-width: 0.500000; stroke-linejoin: round; stroke-linecap: butt;  opacity: 1.000000" xlink:href="#m30e32995789d870ad79a2e54c91cf9c6" x="153.720000" y="336.600000"/>
</g></g>
<g id="line2d12">
<g ><use style="fill: none; stroke: #000000; stroke-width: 0.500000; stroke-linejoin: round; stroke-linecap: butt;  opacity: 1.000000" xlink:href="#m9281cae24120827b11d5ea8a7ad3e96b" x="153.720000" y="36.000000"/>
</g></g>
<g id="text3">
<defs>
<path id="c_42baa63129a918535c52adb20d687ea7" d="M12.406250 -8.296875l16.109375 0.000000l0.000000 -55.625000l-17.531250 3.515625l0.000000 -8.984375l17.437500 -3.515625l9.859375 0.000000l0.000000 64.609375l16.109375 0.000000l0.000000 8.296875l-41.984375 0.000000z"/>
</defs>
<g style="fill: #000000; opacity: 1.000000" transform="translate(140.329375,349.506250)scale(0.120000)">
<use xlink:href="#c_6a8d56c819c37117ab4cf023bec22a5a"/>
<use xlink:href="#c_7a2040fe3b94fcd41d0a72c84e93b115" x="83.789062"/>
<use xlink:href="#c_ed3e21196fb739f392806f09ca0594ef" x="147.412109"/>
<use xlink:href="#c_42baa63129a918535c52adb20d687ea7" x="179.199219"/>
</g>
</g>
</g>
<g id="xtick4">
<g id="line2d13">
<g ><use style="fill: none; stroke: #000000; stroke-width: 0.500000; stroke-linejoin: round; stroke-linecap: butt;  opacity: 1.000000" xlink:href="#m30e32995789d870ad79a2e54c91cf9c6" x="194.580000" y="336.600000"/>
</g></g>
<g id="line2d14">
<g ><use style="fill: none; stroke: #000000; stroke-width: 0.500000; stroke-linejoin: round; stroke-linecap: butt;  opacity: 1.000000" xlink:href="#m9281cae24120827b11d5ea8a7ad3e96b" x="194.580000" y="36.000000"/>
</g></g>
<g id="text4">
<g style="fill: #000000; opacity: 1.000000" transform="translate(185.830000,349.506250)scale(0.120000)">
<use xlink:href="#c_7a2040fe3b94fcd41d0a72c84e93b115"/>
<use xlink:href="#c_ed3e21196fb739f392806f09ca0594ef" x="63.623047"/>
<use xlink:href="#c_7a2040fe3b94fcd41d0a72c84e93b115" x="95.410156"/>
</g>
</g>
</g>
<g id="xtick5">
<g id="line2d15">
<g ><use style="fill: none; stroke: #000000; stroke-width: 0.500000; stroke-linejoin: round; stroke-linecap: butt;  opacity: 1.000000" xlink:href="#m30e32995789d870ad79a2e54c91cf9c6" x="235.440000" y="336.600000"/>
</g></g>
<g id="line2d16">
<g ><use style="fill: none; stroke: #000000; stroke-width: 0.500000; stroke-linejoin: round; stroke-linecap: butt;  opacity: 1.000000" xlink:href="#m9281cae24120827b11d5ea8a7ad3e96b" x="235.440000" y="36.000000"/>
</g></g>
<g id="text5">
<g style="fill: #000000; opacity: 1.000000" transform="translate(226.846250,349.506250)scale(0.120000)">
<use xlink:href="#c_7a2040fe3b94fcd41d0a72c84e93b115"/>
<use xlink:href="#c_ed3e21196fb739f392806f09ca0594ef" x="63.623047"/>
<use xlink:href="#c_42baa63129a918535c52adb20d687ea7" x="95.410156"/>
</g>
</g>
</g>
<g id="xtick6">
<g id="line2d17">
<g ><use style="fill: none; stroke: #000000; stroke-width: 0.500000; stroke-linejoin: round; stroke-linecap: butt;  opacity: 1.000000" xlink:href="#m30e32995789d870ad79a2e54c91cf9c6" x="276.300000" y="336.600000"/>
</g></g>
<g id="line2d18">
<g ><use style="fill: none; stroke: #000000; stroke-width: 0.500000; stroke-linejoin: round; stroke-linecap: butt;  opacity: 1.000000" xlink:href="#m9281cae24120827b11d5ea8a7ad3e96b" x="276.300000" y="36.000000"/>
</g></g>
<g id="text6">
<g style="fill: #000000; opacity: 1.000000" transform="translate(267.753125,349.506250)scale(0.120000)">
<use xlink:href="#c_7a2040fe3b94fcd41d0a72c84e93b115"/>
<use xlink:href="#c_ed3e21196fb739f392806f09ca0594ef" x="63.623047"/>
<use xlink:href="#c_ed3f3ed3ebfbd18bcb9c012009a68ad1" x="95.410156"/>
</g>
</g>
</g>
<g id="xtick7">
<g id="line2d19">
<g ><use style="fill: none; stroke: #000000; stroke-width: 0.500000; stroke-linejoin: round; stroke-linecap: butt;  opacity: 1.000000" xlink:href="#m30e32995789d870ad79a2e54c91cf9c6" x="317.160000" y="336.600000"/>
</g></g>
<g id="line2d20">
<g ><use style="fill: none; stroke: #000000; stroke-width: 0.500000; stroke-linejoin: round; stroke-linecap: butt;  opacity: 1.000000" xlink:href="#m9281cae24120827b11d5ea8a7ad3e96b" x="317.160000" y="36.000000"/>
</g></g>
<g id="text7">
<g style="fill: #000000; opacity: 1.000000" transform="translate(308.495938,349.506250)scale(0.120000)">
<use xlink:href="#c_7a2040fe3b94fcd41d0a72c84e93b115"/>
<use xlink:href="#c_ed3e21196fb739f392806f09ca0594ef" x="63.623047"/>
<use xlink:href="#c_3dcfa38a02242cb63ec6726c6e70be7a" x="95.410156"/>
</g>
</g>
</g>
<g id="xtick8">
<g id="line2d21">
<g ><use style="fill: none; stroke: #000000; stroke-width: 0.500000; stroke-linejoin: round; stroke-linecap: butt;  opacity: 1.000000" xlink:href="#m30e32995789d870ad79a2e54c91cf9c6" x="358.020000" y="336.600000"/>
</g></g>
<g id="line2d22">
<g ><use style="fill: none; stroke: #000000; stroke-width: 0.500000; stroke-linejoin: round; stroke-linecap: butt;  opacity: 1.000000" xlink:href="#m9281cae24120827b11d5ea8a7ad3e96b" x="358.020000" y="36.000000"/>
</g></g>
<g id="text8">
<defs>
<path id="c_a0416418d96557a09b8c1332d34883ba" d="M37.796875 -64.312500l-24.906250 38.921875l24.906250 0.000000zM35.203125 -72.906250l12.406250 0.000000l0.000000 47.515625l10.406250 0.000000l0.000000 8.203125l-10.406250 0.000000l0.000000 17.187500l-9.812500 0.000000l0.000000 -17.187500l-32.906250 0.000000l0.000000 -9.515625z"/>
</defs>
<g style="fill: #000000; opacity: 1.000000" transform="translate(349.207500,349.506250)scale(0.120000)">
<use xlink:href="#c_7a2040fe3b94fcd41d0a72c84e93b115"/>
<use xlink:href="#c_ed3e21196fb739f392806f09ca0594ef" x="63.623047"/>
<use xlink:href="#c_a0416418d96557a09b8c1332d34883ba" x="95.410156"/>
</g>
</g>
</g>
<g id="xtick9">
<g id="line2d23">
<g ><use style="fill: none; stroke: #000000; stroke-width: 0.500000; stroke-linejoin: round; stroke-linecap: butt;  opacity: 1.000000" xlink:href="#m30e32995789d870ad79a2e54c91cf9c6" x="398.880000" y="336.600000"/>
</g></g>
<g id="line2d24">
<g ><use style="fill: none; stroke: #000000; stroke-width: 0.500000; stroke-linejoin: round; stroke-linecap: butt;  opacity: 1.000000" xlink:href="#m9281cae24120827b11d5ea8a7ad3e96b" x="398.880000" y="36.000000"/>
</g></g>
<g id="text9">
<defs>
<path id="c_1260a2df50f305f3db244e29828f968e" d="M10.796875 -72.906250l38.718750 0.000000l0.000000 8.312500l-29.687500 0.000000l0.000000 17.859375q2.140625 -0.734375 4.281250 -1.093750q2.156250 -0.359375 4.312500 -0.359375q12.203125 0.000000 19.328125 6.687500q7.140625 6.687500 7.140625 18.109375q0.000000 11.765625 -7.328125 18.296875q-7.328125 6.515625 -20.656250 6.515625q-4.593750 0.000000 -9.359375 -0.781250q-4.750000 -0.781250 -9.828125 -2.343750l0.000000 -9.921875q4.390625 2.390625 9.078125 3.562500q4.687500 1.171875 9.906250 1.171875q8.453125 0.000000 13.375000 -4.437500q4.937500 -4.437500 4.937500 -12.062500q0.000000 -7.609375 -4.937500 -12.046875q-4.921875 -4.453125 -13.375000 -4.453125q-3.953125 0.000000 -7.890625 0.875000q-3.921875 0.875000 -8.015625 2.734375z"/>
</defs>
<g style="fill: #000000; opacity: 1.000000" transform="translate(390.255000,349.506250)scale(0.120000)">
<use xlink:href="#c_7a2040fe3b94fcd41d0a72c84e93b115"/>
<use xlink:href="#c_ed3e21196fb739f392806f09ca0594ef" x="63.623047"/>
<use xlink:href="#c_1260a2df50f305f3db244e29828f968e" x="95.410156"/>
</g>
</g>
</g>
<g id="xtick10">
<g id="line2d25">
<g ><use style="fill: none; stroke: #000000; stroke-width: 0.500000; stroke-linejoin: round; stroke-linecap: butt;  opacity: 1.000000" xlink:href="#m30e32995789d870ad79a2e54c91cf9c6" x="439.740000" y="336.600000"/>
</g></g>
<g id="line2d26">
<g ><use style="fill: none; stroke: #000000; stroke-width: 0.500000; stroke-linejoin: round; stroke-linecap: butt;  opacity: 1.000000" xlink:href="#m9281cae24120827b11d5ea8a7ad3e96b" x="439.740000" y="36.000000"/>
</g></g>
<g id="text10">
<defs>
<path id="c_cc8d6d580d1b10c8632f7a42cd53db8a" d="M33.015625 -40.375000q-6.640625 0.000000 -10.531250 4.546875q-3.875000 4.531250 -3.875000 12.437500q0.000000 7.859375 3.875000 12.437500q3.890625 4.562500 10.531250 4.562500q6.640625 0.000000 10.515625 -4.562500q3.875000 -4.578125 3.875000 -12.437500q0.000000 -7.906250 -3.875000 -12.437500q-3.875000 -4.546875 -10.515625 -4.546875M52.593750 -71.296875l0.000000 8.984375q-3.718750 -1.750000 -7.500000 -2.671875q-3.781250 -0.937500 -7.500000 -0.937500q-9.765625 0.000000 -14.921875 6.593750q-5.140625 6.593750 -5.875000 19.921875q2.875000 -4.250000 7.218750 -6.515625q4.359375 -2.265625 9.578125 -2.265625q10.984375 0.000000 17.359375 6.671875q6.375000 6.656250 6.375000 18.125000q0.000000 11.234375 -6.640625 18.031250q-6.640625 6.781250 -17.671875 6.781250q-12.656250 0.000000 -19.343750 -9.687500q-6.687500 -9.703125 -6.687500 -28.109375q0.000000 -17.281250 8.203125 -27.562500q8.203125 -10.281250 22.015625 -10.281250q3.718750 0.000000 7.500000 0.734375q3.781250 0.734375 7.890625 2.187500"/>
</defs>
<g style="fill: #000000; opacity: 1.000000" transform="translate(430.974375,349.506250)scale(0.120000)">
<use xlink:href="#c_7a2040fe3b94fcd41d0a72c84e93b115"/>
<use xlink:href="#c_ed3e21196fb739f392806f09ca0594ef" x="63.623047"/>
<use xlink:href="#c_cc8d6d580d1b10c8632f7a42cd53db8a" x="95.410156"/>
</g>
</g>
</g>
<g id="xtick11">
<g id="line2d27">
<g ><use style="fill: none; stroke: #000000; stroke-width: 0.500000; stroke-linejoin: round; stroke-linecap: butt;  opacity: 1.000000" xlink:href="#m30e32995789d870ad79a2e54c91cf9c6" x="480.600000" y="336.600000"/>
</g></g>
<g id="line2d28">
<g ><use style="fill: none; stroke: #000000; stroke-width: 0.500000; stroke-linejoin: round; stroke-linecap: butt;  opacity: 1.000000" xlink:href="#m9281cae24120827b11d5ea8a7ad3e96b" x="480.600000" y="36.000000"/>
</g></g>
<g id="text11">
<defs>
<path id="c_956f18cfdaf972f35a6c2b4aaac2532b" d="M8.203125 -72.906250l46.875000 0.000000l0.000000 4.203125l-26.468750 68.703125l-10.296875 0.000000l24.906250 -64.593750l-35.015625 0.000000z"/>
</defs>
<g style="fill: #000000; opacity: 1.000000" transform="translate(471.967188,349.506250)scale(0.120000)">
<use xlink:href="#c_7a2040fe3b94fcd41d0a72c84e93b115"/>
<use xlink:href="#c_ed3e21196fb739f392806f09ca0594ef" x="63.623047"/>
<use xlink:href="#c_956f18cfdaf972f35a6c2b4aaac2532b" x="95.410156"/>
</g>
</g>
</g>
<g id="text12">
<defs>
<path id="c_5d9b0d099c491f27a9f40b391fa98eef" d="M9.812500 -72.906250l41.890625 0.000000l0.000000 8.312500l-32.031250 0.000000l0.000000 21.484375l28.906250 0.000000l0.000000 8.296875l-28.906250 0.000000l0.000000 34.812500l-9.859375 0.000000z"/>
<path id="c_53989f37671240acb447bc6046631699" d="M50.984375 16.609375l0.000000 6.968750l-51.968750 0.000000l0.000000 -6.968750z"/>
<path id="c_72234ddc5dcad8d05c893ef0371171da" d="M9.812500 -72.906250l14.703125 0.000000l18.593750 49.609375l18.703125 -49.609375l14.703125 0.000000l0.000000 72.906250l-9.625000 0.000000l0.000000 -64.015625l-18.796875 50.000000l-9.906250 0.000000l-18.796875 -50.000000l0.000000 64.015625l-9.578125 0.000000z"/>
<path id="c_f0b2f1db24a99c7a6a1fa56820ca5a8a" d="M8.687500 -72.906250l9.921875 0.000000l0.000000 44.296875q0.000000 11.718750 4.234375 16.875000q4.250000 5.140625 13.781250 5.140625q9.468750 0.000000 13.718750 -5.140625q4.250000 -5.156250 4.250000 -16.875000l0.000000 -44.296875l9.906250 0.000000l0.000000 45.515625q0.000000 14.250000 -7.062500 21.531250q-7.046875 7.281250 -20.812500 7.281250q-13.828125 0.000000 -20.890625 -7.281250q-7.046875 -7.281250 -7.046875 -21.531250z"/>
<path id="c_d41d8cd98f00b204e9800998ecf8427e" d=""/>
<path id="c_7efa9804c2b4c09a4b614b91fdebee3d" d="M31.000000 -75.875000q-6.531250 11.218750 -9.718750 22.218750q-3.171875 10.984375 -3.171875 22.265625q0.000000 11.265625 3.203125 22.328125q3.203125 11.062500 9.687500 22.250000l-7.812500 0.000000q-7.312500 -11.484375 -10.953125 -22.562500q-3.640625 -11.078125 -3.640625 -22.015625q0.000000 -10.890625 3.609375 -21.921875q3.625000 -11.046875 10.984375 -22.562500z"/>
<path id="c_9e4b30cbdf32072672ded72e9074c4c9" d="M-0.296875 -72.906250l61.671875 0.000000l0.000000 8.312500l-25.875000 0.000000l0.000000 64.593750l-9.906250 0.000000l0.000000 -64.593750l-25.890625 0.000000z"/>
<path id="c_dbe439baa035de1a298d0549b22269d8" d="M9.812500 -72.906250l46.093750 0.000000l0.000000 8.312500l-36.234375 0.000000l0.000000 21.578125l34.718750 0.000000l0.000000 8.296875l-34.718750 0.000000l0.000000 26.421875l37.109375 0.000000l0.000000 8.296875l-46.968750 0.000000z"/>
<path id="c_a469f8ee191679fe73f3b765bd271597" d="M64.406250 -67.281250l0.000000 10.390625q-4.984375 -4.640625 -10.625000 -6.921875q-5.640625 -2.296875 -11.984375 -2.296875q-12.500000 0.000000 -19.140625 7.640625q-6.640625 7.640625 -6.640625 22.093750q0.000000 14.406250 6.640625 22.046875q6.640625 7.640625 19.140625 7.640625q6.343750 0.000000 11.984375 -2.296875q5.640625 -2.296875 10.625000 -6.937500l0.000000 10.312500q-5.171875 3.515625 -10.968750 5.281250q-5.781250 1.750000 -12.218750 1.750000q-16.562500 0.000000 -26.093750 -10.125000q-9.515625 -10.140625 -9.515625 -27.671875q0.000000 -17.578125 9.515625 -27.703125q9.531250 -10.140625 26.093750 -10.140625q6.531250 0.000000 12.312500 1.734375q5.796875 1.734375 10.875000 5.203125"/>
<path id="c_680e57528fc97ec49605e10827a40086" d="M39.406250 -66.218750q-10.750000 0.000000 -17.078125 8.015625q-6.312500 8.000000 -6.312500 21.828125q0.000000 13.765625 6.312500 21.781250q6.328125 8.000000 17.078125 8.000000q10.734375 0.000000 17.015625 -8.000000q6.281250 -8.015625 6.281250 -21.781250q0.000000 -13.828125 -6.281250 -21.828125q-6.281250 -8.015625 -17.015625 -8.015625M39.406250 -74.218750q15.328125 0.000000 24.500000 10.281250q9.187500 10.281250 9.187500 27.562500q0.000000 17.234375 -9.187500 27.515625q-9.171875 10.281250 -24.500000 10.281250q-15.375000 0.000000 -24.593750 -10.250000q-9.203125 -10.265625 -9.203125 -27.546875q0.000000 -17.281250 9.203125 -27.562500q9.218750 -10.281250 24.593750 -10.281250"/>
<path id="c_fabc000b0fb83f456ee9f092ad635e20" d="M9.812500 -72.906250l13.281250 0.000000l32.328125 60.984375l0.000000 -60.984375l9.562500 0.000000l0.000000 72.906250l-13.281250 0.000000l-32.312500 -60.984375l0.000000 60.984375l-9.578125 0.000000z"/>
<path id="c_814edda51889e387a3dfbce453bfa1ec" d="M9.812500 -72.906250l9.859375 0.000000l0.000000 72.906250l-9.859375 0.000000z"/>
<path id="c_4c6532c564269b2c70b230c2e45c01e4" d="M44.390625 -34.187500q3.171875 1.078125 6.171875 4.593750q3.000000 3.515625 6.031250 9.671875l10.015625 19.921875l-10.609375 0.000000l-9.312500 -18.703125q-3.625000 -7.328125 -7.015625 -9.718750q-3.390625 -2.390625 -9.250000 -2.390625l-10.750000 0.000000l0.000000 30.812500l-9.859375 0.000000l0.000000 -72.906250l22.265625 0.000000q12.500000 0.000000 18.656250 5.234375q6.156250 5.218750 6.156250 15.765625q0.000000 6.890625 -3.203125 11.437500q-3.203125 4.531250 -9.296875 6.281250M19.671875 -64.796875l0.000000 25.875000l12.406250 0.000000q7.125000 0.000000 10.765625 -3.296875q3.640625 -3.296875 3.640625 -9.687500q0.000000 -6.390625 -3.640625 -9.640625q-3.640625 -3.250000 -10.765625 -3.250000z"/>
<path id="c_3b86f9879deccc43ffac57ae939fe3b7" d="M59.515625 -10.406250l0.000000 -19.578125l-16.109375 0.000000l0.000000 -8.109375l25.875000 0.000000l0.000000 31.312500q-5.703125 4.046875 -12.593750 6.125000q-6.875000 2.078125 -14.687500 2.078125q-17.093750 0.000000 -26.750000 -9.984375q-9.640625 -10.000000 -9.640625 -27.812500q0.000000 -17.875000 9.640625 -27.859375q9.656250 -9.984375 26.750000 -9.984375q7.125000 0.000000 13.546875 1.765625q6.421875 1.750000 11.843750 5.171875l0.000000 10.500000q-5.468750 -4.640625 -11.625000 -6.984375q-6.156250 -2.343750 -12.937500 -2.343750q-13.390625 0.000000 -20.109375 7.468750q-6.703125 7.468750 -6.703125 22.265625q0.000000 14.750000 6.703125 22.218750q6.718750 7.468750 20.109375 7.468750q5.218750 0.000000 9.312500 -0.906250q4.109375 -0.906250 7.375000 -2.812500"/>
<path id="c_e96974be642f6eac0427d72f9cec6c19" d="M8.015625 -75.875000l7.812500 0.000000q7.312500 11.515625 10.953125 22.562500q3.640625 11.031250 3.640625 21.921875q0.000000 10.937500 -3.640625 22.015625q-3.640625 11.078125 -10.953125 22.562500l-7.812500 0.000000q6.484375 -11.187500 9.687500 -22.250000q3.203125 -11.062500 3.203125 -22.328125q0.000000 -11.281250 -3.203125 -22.265625q-3.203125 -11.000000 -9.687500 -22.218750"/>
</defs>
<g style="fill: #000000; opacity: 1.000000" transform="translate(131.878125,368.334375)scale(0.180000)">
<use xlink:href="#c_5d9b0d099c491f27a9f40b391fa98eef"/>
<use xlink:href="#c_53989f37671240acb447bc6046631699" x="57.519531"/>
<use xlink:href="#c_72234ddc5dcad8d05c893ef0371171da" x="107.519531"/>
<use xlink:href="#c_f0b2f1db24a99c7a6a1fa56820ca5a8a" x="193.798828"/>
<use xlink:href="#c_d41d8cd98f00b204e9800998ecf8427e" x="266.992188"/>
<use xlink:href="#c_7efa9804c2b4c09a4b614b91fdebee3d" x="298.779297"/>
<use xlink:href="#c_9e4b30cbdf32072672ded72e9074c4c9" x="337.792969"/>
<use xlink:href="#c_dbe439baa035de1a298d0549b22269d8" x="398.876953"/>
<use xlink:href="#c_a469f8ee191679fe73f3b765bd271597" x="462.060547"/>
<use xlink:href="#c_9e4b30cbdf32072672ded72e9074c4c9" x="531.884766"/>
<use xlink:href="#c_680e57528fc97ec49605e10827a40086" x="592.968750"/>
<use xlink:href="#c_fabc000b0fb83f456ee9f092ad635e20" x="671.679688"/>
<use xlink:href="#c_814edda51889e387a3dfbce453bfa1ec" x="746.484375"/>
<use xlink:href="#c_a469f8ee191679fe73f3b765bd271597" x="775.976562"/>
<use xlink:href="#c_d41d8cd98f00b204e9800998ecf8427e" x="845.800781"/>
<use xlink:href="#c_a469f8ee191679fe73f3b765bd271597" x="877.587891"/>
<use xlink:href="#c_680e57528fc97ec49605e10827a40086" x="947.412109"/>
<use xlink:href="#c_ed3f3ed3ebfbd18bcb9c012009a68ad1" x="1026.123047"/>
<use xlink:href="#c_d41d8cd98f00b204e9800998ecf8427e" x="1089.746094"/>
<use xlink:href="#c_5d9b0d099c491f27a9f40b391fa98eef" x="1121.533203"/>
<use xlink:href="#c_680e57528fc97ec49605e10827a40086" x="1179.052734"/>
<use xlink:href="#c_4c6532c564269b2c70b230c2e45c01e4" x="1257.763672"/>
<use xlink:href="#c_a469f8ee191679fe73f3b765bd271597" x="1322.246094"/>
<use xlink:href="#c_814edda51889e387a3dfbce453bfa1ec" x="1392.070312"/>
<use xlink:href="#c_fabc000b0fb83f456ee9f092ad635e20" x="1421.562500"/>
<use xlink:href="#c_3b86f9879deccc43ffac57ae939fe3b7" x="1496.367188"/>
<use xlink:href="#c_e96974be642f6eac0427d72f9cec6c19" x="1573.857422"/>
</g>
</g>
</g>
<g id="matplotlib.axis2">
<g id="ytick1">
<g id="line2d29">
<defs><path id="m3400efa6b1638b3fea9e19e898273957" d="M0.000000 0.000000L4.000000 0.000000"/></defs>
<g ><use style="fill: none; stroke: #000000; stroke-width: 0.500000; stroke-linejoin: round; stroke-linecap: butt;  opacity: 1.000000" xlink:href="#m3400efa6b1638b3fea9e19e898273957" x="72.000000" y="336.600000"/>
</g></g>
<g id="line2d30">
<defs><path id="m20b58b2501143cb5e0a5e8f1ef6f1643" d="M0.000000 0.000000L-4.000000 0.000000"/></defs>
<g ><use style="fill: none; stroke: #000000; stroke-width: 0.500000; stroke-linejoin: round; stroke-linecap: butt;  opacity: 1.000000" xlink:href="#m20b58b2501143cb5e0a5e8f1ef6f1643" x="480.600000" y="336.600000"/>
</g></g>
<g id="text13">
<g style="fill: #000000; opacity: 1.000000" transform="translate(42.859375,340.967187)scale(0.120000)">
<use xlink:href="#c_7a2040fe3b94fcd41d0a72c84e93b115"/>
<use xlink:href="#c_ed3e21196fb739f392806f09ca0594ef" x="63.623047"/>
<use xlink:href="#c_7a2040fe3b94fcd41d0a72c84e93b115" x="95.410156"/>
<use xlink:href="#c_7a2040fe3b94fcd41d0a72c84e93b115" x="159.033203"/>
</g>
</g>
</g>
<g id="ytick2">
<g id="line2d31">
<g ><use style="fill: none; stroke: #000000; stroke-width: 0.500000; stroke-linejoin: round; stroke-linecap: butt;  opacity: 1.000000" xlink:href="#m3400efa6b1638b3fea9e19e898273957" x="72.000000" y="276.480000"/>
</g></g>
<g id="line2d32">
<g ><use style="fill: none; stroke: #000000; stroke-width: 0.500000; stroke-linejoin: round; stroke-linecap: butt;  opacity: 1.000000" xlink:href="#m20b58b2501143cb5e0a5e8f1ef6f1643" x="480.600000" y="276.480000"/>
</g></g>
<g id="text14">
<g style="fill: #000000; opacity: 1.000000" transform="translate(43.109375,280.847187)scale(0.120000)">
<use xlink:href="#c_7a2040fe3b94fcd41d0a72c84e93b115"/>
<use xlink:href="#c_ed3e21196fb739f392806f09ca0594ef" x="63.623047"/>
<use xlink:href="#c_ed3f3ed3ebfbd18bcb9c012009a68ad1" x="95.410156"/>
<use xlink:href="#c_1260a2df50f305f3db244e29828f968e" x="159.033203"/>
</g>
</g>
</g>
<g id="ytick3">
<g id="line2d33">
<g ><use style="fill: none; stroke: #000000; stroke-width: 0.500000; stroke-linejoin: round; stroke-linecap: butt;  opacity: 1.000000" xlink:href="#m3400efa6b1638b3fea9e19e898273957" x="72.000000" y="216.360000"/>
</g></g>
<g id="line2d34">
<g ><use style="fill: none; stroke: #000000; stroke-width: 0.500000; stroke-linejoin: round; stroke-linecap: butt;  opacity: 1.000000" xlink:href="#m20b58b2501143cb5e0a5e8f1ef6f1643" x="480.600000" y="216.360000"/>
</g></g>
<g id="text15">
<g style="fill: #000000; opacity: 1.000000" transform="translate(42.859375,220.727187)scale(0.120000)">
<use xlink:href="#c_7a2040fe3b94fcd41d0a72c84e93b115"/>
<use xlink:href="#c_ed3e21196fb739f392806f09ca0594ef" x="63.623047"/>
<use xlink:href="#c_1260a2df50f305f3db244e29828f968e" x="95.410156"/>
<use xlink:href="#c_7a2040fe3b94fcd41d0a72c84e93b115" x="159.033203"/>
</g>
</g>
</g>
<g id="ytick4">
<g id="line2d35">
<g ><use style="fill: none; stroke: #000000; stroke-width: 0.500000; stroke-linejoin: round; stroke-linecap: butt;  opacity: 1.000000" xlink:href="#m3400efa6b1638b3fea9e19e898273957" x="72.000000" y="156.240000"/>
</g></g>
<g id="line2d36">
<g ><use style="fill: none; stroke: #000000; stroke-width: 0.500000; stroke-linejoin: round; stroke-linecap: butt;  opacity: 1.000000" xlink:href="#m20b58b2501143cb5e0a5e8f1ef6f1643" x="480.600000" y="156.240000"/>
</g></g>
<g id="text16">
<g style="fill: #000000; opacity: 1.000000" transform="translate(43.109375,160.607187)scale(0.120000)">
<use xlink:href="#c_7a2040fe3b94fcd41d0a72c84e93b115"/>
<use xlink:href="#c_ed3e21196fb739f392806f09ca0594ef" x="63.623047"/>
<use xlink:href="#c_956f18cfdaf972f35a6c2b4aaac2532b" x="95.410156"/>
<use xlink:href="#c_1260a2df50f305f3db244e29828f968e" x="159.033203"/>
</g>
</g>
</g>
<g id="ytick5">
<g id="line2d37">
<g ><use style="fill: none; stroke: #000000; stroke-width: 0.500000; stroke-linejoin: round; stroke-linecap: butt;  opacity: 1.000000" xlink:href="#m3400efa6b1638b3fea9e19e898273957" x="72.000000" y="96.120000"/>
</g></g>
<g id="line2d38">
<g ><use style="fill: none; stroke: #000000; stroke-width: 0.500000; stroke-linejoin: round; stroke-linecap: butt;  opacity: 1.000000" xlink:href="#m20b58b2501143cb5e0a5e8f1ef6f1643" x="480.600000" y="96.120000"/>
</g></g>
<g id="text17">
<g style="fill: #000000; opacity: 1.000000" transform="translate(43.375000,100.487188)scale(0.120000)">
<use xlink:href="#c_42baa63129a918535c52adb20d687ea7"/>
<use xlink:href="#c_ed3e21196fb739f392806f09ca0594ef" x="63.623047"/>
<use xlink:href="#c_7a2040fe3b94fcd41d0a72c84e93b115" x="95.410156"/>
<use xlink:href="#c_7a2040fe3b94fcd41d0a72c84e93b115" x="159.033203"/>
</g>
</g>
</g>
<g id="ytick6">
<g id="line2d39">
<g ><use style="fill: none; stroke: #000000; stroke-width: 0.500000; stroke-linejoin: round; stroke-linecap: butt;  opacity: 1.000000" xlink:href="#m3400efa6b1638b3fea9e19e898273957" x="72.000000" y="36.000000"/>
</g></g>
<g id="line2d40">
<g ><use style="fill: none; stroke: #000000; stroke-width: 0.500000; stroke-linejoin: round; stroke-linecap: butt;  opacity: 1.000000" xlink:href="#m20b58b2501143cb5e0a5e8f1ef6f1643" x="480.600000" y="36.000000"/>
</g></g>
<g id="text18">
<g style="fill: #000000; opacity: 1.000000" transform="translate(43.625000,40.367188)scale(0.120000)">
<use xlink:href="#c_42baa63129a918535c52adb20d687ea7"/>
<use xlink:href="#c_ed3e21196fb739f392806f09ca0594ef" x="63.623047"/>
<use xlink:href="#c_ed3f3ed3ebfbd18bcb9c012009a68ad1" x="95.410156"/>
<use xlink:href="#c_1260a2df50f305f3db244e29828f968e" x="159.033203"/>
</g>
</g>
</g>
<g id="text19">
<defs>
<path id="c_6023715d605f81e6eb43b7f9d77e7c51" d="M34.187500 -63.187500l-13.390625 36.281250l26.812500 0.000000zM28.609375 -72.906250l11.187500 0.000000l27.781250 72.906250l-10.250000 0.000000l-6.640625 -18.703125l-32.859375 0.000000l-6.640625 18.703125l-10.406250 0.000000z"/>
<path id="c_1f359503f1521dfa90158578bb4360b9" d="M6.296875 -72.906250l10.593750 0.000000l18.125000 27.109375l18.203125 -27.109375l10.593750 0.000000l-23.437500 35.015625l25.000000 37.890625l-10.593750 0.000000l-20.500000 -31.000000l-20.656250 31.000000l-10.640625 0.000000l26.015625 -38.921875z"/>
<path id="c_0f8c41144cfbf448378cb6fd1cc8e549" d="M18.312500 -70.218750l0.000000 15.531250l18.500000 0.000000l0.000000 6.984375l-18.500000 0.000000l0.000000 29.687500q0.000000 6.687500 1.828125 8.593750q1.828125 1.906250 7.453125 1.906250l9.218750 0.000000l0.000000 7.515625l-9.218750 0.000000q-10.406250 0.000000 -14.359375 -3.875000q-3.953125 -3.890625 -3.953125 -14.140625l0.000000 -29.687500l-6.593750 0.000000l0.000000 -6.984375l6.593750 0.000000l0.000000 -15.531250z"/>
<path id="c_1a1d9ef1e4ddee695bd67a282879f099" d="M8.593750 -75.984375l20.703125 0.000000l0.000000 6.984375l-11.718750 0.000000l0.000000 75.203125l11.718750 0.000000l0.000000 6.984375l-20.703125 0.000000z"/>
<path id="c_01d93a582460e35a7945ca50d148ffeb" d="M34.281250 -27.484375q-10.890625 0.000000 -15.093750 2.484375q-4.203125 2.484375 -4.203125 8.500000q0.000000 4.781250 3.156250 7.593750q3.156250 2.796875 8.562500 2.796875q7.484375 0.000000 12.000000 -5.296875q4.515625 -5.296875 4.515625 -14.078125l0.000000 -2.000000zM52.203125 -31.203125l0.000000 31.203125l-8.984375 0.000000l0.000000 -8.296875q-3.078125 4.968750 -7.671875 7.343750q-4.593750 2.375000 -11.234375 2.375000q-8.390625 0.000000 -13.359375 -4.718750q-4.953125 -4.718750 -4.953125 -12.625000q0.000000 -9.218750 6.171875 -13.906250q6.187500 -4.687500 18.437500 -4.687500l12.609375 0.000000l0.000000 -0.890625q0.000000 -6.203125 -4.078125 -9.593750q-4.078125 -3.390625 -11.453125 -3.390625q-4.687500 0.000000 -9.140625 1.125000q-4.437500 1.125000 -8.531250 3.375000l0.000000 -8.312500q4.921875 -1.906250 9.562500 -2.843750q4.640625 -0.953125 9.031250 -0.953125q11.875000 0.000000 17.734375 6.156250q5.859375 6.140625 5.859375 18.640625"/>
<path id="c_6ec8d5749226675394676a5d2a3b468b" d="M41.109375 -46.296875q-1.515625 -0.875000 -3.296875 -1.281250q-1.781250 -0.421875 -3.921875 -0.421875q-7.625000 0.000000 -11.703125 4.953125q-4.078125 4.953125 -4.078125 14.234375l0.000000 28.812500l-9.031250 0.000000l0.000000 -54.687500l9.031250 0.000000l0.000000 8.500000q2.843750 -4.984375 7.375000 -7.390625q4.546875 -2.421875 11.046875 -2.421875q0.921875 0.000000 2.046875 0.125000q1.125000 0.109375 2.484375 0.359375z"/>
<path id="c_5cc9741494d2ad8f9764e03ae145569f" d="M48.687500 -27.296875q0.000000 -9.906250 -4.078125 -15.546875q-4.078125 -5.640625 -11.203125 -5.640625q-7.140625 0.000000 -11.218750 5.640625q-4.078125 5.640625 -4.078125 15.546875q0.000000 9.906250 4.078125 15.546875q4.078125 5.640625 11.218750 5.640625q7.125000 0.000000 11.203125 -5.640625q4.078125 -5.640625 4.078125 -15.546875M18.109375 -46.390625q2.843750 -4.875000 7.156250 -7.234375q4.328125 -2.375000 10.328125 -2.375000q9.968750 0.000000 16.187500 7.906250q6.234375 7.906250 6.234375 20.796875q0.000000 12.890625 -6.234375 20.812500q-6.218750 7.906250 -16.187500 7.906250q-6.000000 0.000000 -10.328125 -2.375000q-4.312500 -2.375000 -7.156250 -7.250000l0.000000 8.203125l-9.031250 0.000000l0.000000 -75.984375l9.031250 0.000000z"/>
<path id="c_c438d87e693443c2861ebd6359e6491e" d="M8.500000 -21.578125l0.000000 -33.109375l8.984375 0.000000l0.000000 32.765625q0.000000 7.765625 3.015625 11.656250q3.031250 3.875000 9.093750 3.875000q7.265625 0.000000 11.484375 -4.640625q4.234375 -4.640625 4.234375 -12.656250l0.000000 -31.000000l8.984375 0.000000l0.000000 54.687500l-8.984375 0.000000l0.000000 -8.406250q-3.265625 4.984375 -7.593750 7.406250q-4.312500 2.421875 -10.031250 2.421875q-9.421875 0.000000 -14.312500 -5.859375q-4.875000 -5.859375 -4.875000 -17.140625"/>
<path id="c_fe791a90f5471e2ab20a5ed41a7fa451" d="M54.890625 -33.015625l0.000000 33.015625l-8.984375 0.000000l0.000000 -32.718750q0.000000 -7.765625 -3.031250 -11.609375q-3.031250 -3.859375 -9.078125 -3.859375q-7.281250 0.000000 -11.484375 4.640625q-4.203125 4.625000 -4.203125 12.640625l0.000000 30.906250l-9.031250 0.000000l0.000000 -54.687500l9.031250 0.000000l0.000000 8.500000q3.234375 -4.937500 7.593750 -7.375000q4.375000 -2.437500 10.093750 -2.437500q9.421875 0.000000 14.250000 5.828125q4.843750 5.828125 4.843750 17.156250"/>
<path id="c_6a63bda47b2f3da1cec6aadd80692cfe" d="M9.421875 -54.687500l8.984375 0.000000l0.000000 54.687500l-8.984375 0.000000zM9.421875 -75.984375l8.984375 0.000000l0.000000 11.390625l-8.984375 0.000000z"/>
<path id="c_8e0810ad13fe20a2a87a2619799b154d" d="M44.281250 -53.078125l0.000000 8.500000q-3.796875 -1.953125 -7.906250 -2.921875q-4.093750 -0.984375 -8.500000 -0.984375q-6.687500 0.000000 -10.031250 2.046875q-3.343750 2.046875 -3.343750 6.156250q0.000000 3.125000 2.390625 4.906250q2.390625 1.781250 9.625000 3.390625l3.078125 0.687500q9.562500 2.046875 13.593750 5.781250q4.031250 3.734375 4.031250 10.421875q0.000000 7.625000 -6.031250 12.078125q-6.031250 4.437500 -16.578125 4.437500q-4.390625 0.000000 -9.156250 -0.859375q-4.765625 -0.859375 -10.031250 -2.562500l0.000000 -9.281250q4.984375 2.593750 9.812500 3.890625q4.828125 1.281250 9.578125 1.281250q6.343750 0.000000 9.750000 -2.171875q3.421875 -2.171875 3.421875 -6.125000q0.000000 -3.656250 -2.468750 -5.609375q-2.453125 -1.953125 -10.812500 -3.765625l-3.125000 -0.734375q-8.343750 -1.750000 -12.062500 -5.390625q-3.703125 -3.640625 -3.703125 -9.984375q0.000000 -7.718750 5.468750 -11.906250q5.468750 -4.203125 15.531250 -4.203125q4.968750 0.000000 9.359375 0.734375q4.406250 0.718750 8.109375 2.187500"/>
<path id="c_5bcf09947f6bf611091602c6fea1d302" d="M30.421875 -75.984375l0.000000 89.171875l-20.703125 0.000000l0.000000 -6.984375l11.671875 0.000000l0.000000 -75.203125l-11.671875 0.000000l0.000000 -6.984375z"/>
</defs>
<g style="fill: #000000; opacity: 1.000000" transform="translate(37.859375,271.979687)rotate(-90.0)scale(0.180000)">
<use xlink:href="#c_72234ddc5dcad8d05c893ef0371171da"/>
<use xlink:href="#c_6023715d605f81e6eb43b7f9d77e7c51" x="86.279297"/>
<use xlink:href="#c_1f359503f1521dfa90158578bb4360b9" x="154.687500"/>
<use xlink:href="#c_d41d8cd98f00b204e9800998ecf8427e" x="223.193359"/>
<use xlink:href="#c_814edda51889e387a3dfbce453bfa1ec" x="254.980469"/>
<use xlink:href="#c_7efa9804c2b4c09a4b614b91fdebee3d" x="284.472656"/>
<use xlink:href="#c_0f8c41144cfbf448378cb6fd1cc8e549" x="323.486328"/>
<use xlink:href="#c_e96974be642f6eac0427d72f9cec6c19" x="362.695312"/>
<use xlink:href="#c_d41d8cd98f00b204e9800998ecf8427e" x="401.708984"/>
<use xlink:href="#c_1a1d9ef1e4ddee695bd67a282879f099" x="433.496094"/>
<use xlink:href="#c_01d93a582460e35a7945ca50d148ffeb" x="472.509766"/>
<use xlink:href="#c_6ec8d5749226675394676a5d2a3b468b" x="533.789062"/>
<use xlink:href="#c_5cc9741494d2ad8f9764e03ae145569f" x="574.902344"/>
<use xlink:href="#c_ed3e21196fb739f392806f09ca0594ef" x="638.378906"/>
<use xlink:href="#c_d41d8cd98f00b204e9800998ecf8427e" x="670.166016"/>
<use xlink:href="#c_c438d87e693443c2861ebd6359e6491e" x="701.953125"/>
<use xlink:href="#c_fe791a90f5471e2ab20a5ed41a7fa451" x="765.332031"/>
<use xlink:href="#c_6a63bda47b2f3da1cec6aadd80692cfe" x="828.710938"/>
<use xlink:href="#c_0f8c41144cfbf448378cb6fd1cc8e549" x="856.494141"/>
<use xlink:href="#c_8e0810ad13fe20a2a87a2619799b154d" x="895.703125"/>
<use xlink:href="#c_5bcf09947f6bf611091602c6fea1d302" x="947.802734"/>
</g>
</g>
</g>
<g id="patch3">
<path style="fill: none; stroke: #000000; stroke-width: 1.000000; stroke-linejoin: round; stroke-linecap: square;  opacity: 1.000000"  d="M72.000000 36.000000L480.600000 36.000000"/>
</g>
<g id="patch4">
<path style="fill: none; stroke: #000000; stroke-width: 1.000000; stroke-linejoin: round; stroke-linecap: square;  opacity: 1.000000"  d="M480.600000 336.600000L480.600000 36.000000"/>
</g>
<g id="patch5">
<path style="fill: none; stroke: #000000; stroke-width: 1.000000; stroke-linejoin: round; stroke-linecap: square;  opacity: 1.000000"  d="M72.000000 336.600000L480.600000 336.600000"/>
</g>
<g id="patch6">
<path style="fill: none; stroke: #000000; stroke-width: 1.000000; stroke-linejoin: round; stroke-linecap: square;  opacity: 1.000000"  d="M72.000000 336.600000L72.000000 36.000000"/>
</g>
<g id="text20">
<g clip-path="url(#p85afda3df449e9901343cd6a43678f50)">
<g style="fill: #ff0000; opacity: 1.000000" transform="translate(439.740000,323.999846)scale(0.120000)">
<use xlink:href="#c_d41d8cd98f00b204e9800998ecf8427e"/>
</g>
</g>
</g>
<g id="text21">
<defs>
<path id="c_5e9f44da4350eed47d2641510279ca20" d="M9.812500 -72.906250l9.859375 0.000000l0.000000 29.890625l35.843750 0.000000l0.000000 -29.890625l9.859375 0.000000l0.000000 72.906250l-9.859375 0.000000l0.000000 -34.718750l-35.843750 0.000000l0.000000 34.718750l-9.859375 0.000000z"/>
</defs>
<g clip-path="url(#p85afda3df449e9901343cd6a43678f50)">
<g style="fill: #ff0000; opacity: 1.000000" transform="translate(356.650430,184.048636)scale(0.120000)">
<use xlink:href="#c_5e9f44da4350eed47d2641510279ca20"/>
</g>
</g>
</g>
<g id="text22">
<g clip-path="url(#p85afda3df449e9901343cd6a43678f50)">
<g style="fill: #ff0000; opacity: 1.000000" transform="translate(358.428839,179.194439)scale(0.120000)">
<use xlink:href="#c_d41d8cd98f00b204e9800998ecf8427e"/>
</g>
</g>
</g>
<g id="text23">
<g clip-path="url(#p85afda3df449e9901343cd6a43678f50)">
<g style="fill: #ff0000; opacity: 1.000000" transform="translate(175.923431,173.254579)scale(0.120000)">
<use xlink:href="#c_5e9f44da4350eed47d2641510279ca20"/>
</g>
</g>
</g>
<g id="text24">
<g clip-path="url(#p85afda3df449e9901343cd6a43678f50)">
<g style="fill: #ff0000; opacity: 1.000000" transform="translate(112.860000,53.479618)scale(0.120000)">
<use xlink:href="#c_d41d8cd98f00b204e9800998ecf8427e"/>
</g>
</g>
</g>
<g id="text25">
<defs>
<path id="c_07e3f33241aff50afcba519606f2a979" d="M9.812500 -72.906250l9.859375 0.000000l0.000000 64.609375l35.500000 0.000000l0.000000 8.296875l-45.359375 0.000000z"/>
</defs>
<g clip-path="url(#p85afda3df449e9901343cd6a43678f50)">
<g style="fill: #ff0000; opacity: 1.000000" transform="translate(358.885886,180.131111)scale(0.120000)">
<use xlink:href="#c_07e3f33241aff50afcba519606f2a979"/>
</g>
</g>
</g>
<g id="text26">
<g clip-path="url(#p85afda3df449e9901343cd6a43678f50)">
<g style="fill: #ff0000; opacity: 1.000000" transform="translate(358.020390,172.132463)scale(0.120000)">
<use xlink:href="#c_d41d8cd98f00b204e9800998ecf8427e"/>
</g>
</g>
</g>
<g id="text27">
<g clip-path="url(#p85afda3df449e9901343cd6a43678f50)">
<g style="fill: #ff0000; opacity: 1.000000" transform="translate(174.903050,109.475984)scale(0.120000)">
<use xlink:href="#c_07e3f33241aff50afcba519606f2a979"/>
</g>
</g>
</g>
<g id="text28">
<g clip-path="url(#p85afda3df449e9901343cd6a43678f50)">
<g style="fill: #ff0000; opacity: 1.000000" transform="translate(176.530269,173.253631)scale(0.120000)">
<use xlink:href="#c_07e3f33241aff50afcba519606f2a979"/>
</g>
</g>
</g>
<g id="text29">
<g clip-path="url(#p85afda3df449e9901343cd6a43678f50)">
<g style="fill: #ff0000; opacity: 1.000000" transform="translate(179.223351,167.468456)scale(0.120000)">
<use xlink:href="#c_d41d8cd98f00b204e9800998ecf8427e"/>
</g>
</g>
</g>
<g id="text30">
<defs>
<path id="c_518d586bee075aa0153eaebfcb5ab11f" d="M19.671875 -64.796875l0.000000 27.390625l12.406250 0.000000q6.890625 0.000000 10.640625 -3.562500q3.765625 -3.562500 3.765625 -10.156250q0.000000 -6.546875 -3.765625 -10.109375q-3.750000 -3.562500 -10.640625 -3.562500zM9.812500 -72.906250l22.265625 0.000000q12.265625 0.000000 18.531250 5.546875q6.281250 5.546875 6.281250 16.234375q0.000000 10.796875 -6.281250 16.312500q-6.265625 5.515625 -18.531250 5.515625l-12.406250 0.000000l0.000000 29.296875l-9.859375 0.000000z"/>
</defs>
<g style="fill: #000000; opacity: 1.000000" transform="translate(250.729688,30.687500)scale(0.220000)">
<use xlink:href="#c_518d586bee075aa0153eaebfcb5ab11f"/>
<use xlink:href="#c_518d586bee075aa0153eaebfcb5ab11f" x="60.302734"/>
<use xlink:href="#c_7a2040fe3b94fcd41d0a72c84e93b115" x="120.605469"/>
<use xlink:href="#c_a0416418d96557a09b8c1332d34883ba" x="184.228516"/>
</g>
</g>
</g>
</g>
</svg>
